<svg xmlns="http://www.w3.org/2000/svg" viewBox="0 0 717.06 748.73"><circle cx="358.53" cy="390.2" r="358.53" fill="#f9dfaf"/><path d="M722.62,746.31H27.38s0-143.56,49.66-176.67c26.76-17.85,111.23-49,183.42-73.87C322.22,474.46,375,457.71,375,457.71s52.64,16.72,114.3,38C561.56,520.6,646.17,551.77,673,569.64,722.62,602.75,722.62,746.31,722.62,746.31Z" transform="translate(-16.47 -1.27)" fill="#ffac33"/><path d="M489.3,495.69c-13,18.74-47.24,56.61-112.59,56.82-58,.19-98.86-37.19-116.25-56.74C322.22,474.46,375,457.71,375,457.71S427.64,474.43,489.3,495.69Z" transform="translate(-16.47 -1.27)" fill="#fcdfb9"/><path d="M374.47,579.66c-50.5,0-97-24-142.19-73.28a2.22,2.22,0,0,1,3.28-3c44.28,48.33,89.73,71.83,138.91,71.83H375c69.85-.23,114.89-38.67,140.36-70.87a2.22,2.22,0,0,1,3.49,2.76c-26.08,33-72.21,72.32-143.84,72.56Z" transform="translate(-16.47 -1.27)" fill="#fcdfb9"/><path d="M233.71,258s-35.46-90.19-31.29-145.88C209.19,21.62,392.9-12.79,448.79,6.41S471.48,151.3,471.48,151.3Z" transform="translate(-16.47 -1.27)" fill="#3d2031"/><path d="M515,258s38.21-92,34.61-136.18C543.79,49.94,377.27,43,328.89,58.2s-19.63,115.05-19.63,115.05Z" transform="translate(-16.47 -1.27)" fill="#3d2031"/><path d="M503.71,238.6s28-18.86,47.94,4.85-5.39,79.18-47.94,78.1-34.48-45-34.48-45Z" transform="translate(-16.47 -1.27)" fill="#f7907c"/><path d="M246.29,238.6s-28-18.86-47.94,4.85,5.39,79.18,47.94,78.1,34.48-45,34.48-45Z" transform="translate(-16.47 -1.27)" fill="#f7907c"/><path d="M503.64,289a3.15,3.15,0,0,1-.8-.11,2.78,2.78,0,0,1-1.87-3.46,62.71,62.71,0,0,1,7.67-15.6c7.2-10.57,16.57-16.63,27.09-17.52a2.78,2.78,0,1,1,.47,5.54c-21.49,1.81-29.82,28.89-29.9,29.17A2.79,2.79,0,0,1,503.64,289Z" transform="translate(-16.47 -1.27)" fill="#db6356"/><path d="M535.34,275.12a2.78,2.78,0,0,1-1.24-.29c-6.55-3.28-14-3.66-22.07-1.12a2.78,2.78,0,1,1-1.66-5.31c9.52-3,18.34-2.49,26.22,1.46a2.78,2.78,0,0,1-1.25,5.26Z" transform="translate(-16.47 -1.27)" fill="#db6356"/><path d="M248.61,289a2.79,2.79,0,0,1-2.66-2c-.1-.35-8.5-27.37-29.9-29.17a2.78,2.78,0,0,1,.47-5.54c10.52.89,19.89,7,27.09,17.52a62.71,62.71,0,0,1,7.67,15.6,2.78,2.78,0,0,1-1.87,3.46A3.15,3.15,0,0,1,248.61,289Z" transform="translate(-16.47 -1.27)" fill="#db6356"/><path d="M216.91,275.12a2.78,2.78,0,0,1-1.25-5.26c7.88-3.95,16.7-4.43,26.22-1.46a2.78,2.78,0,1,1-1.66,5.31c-8.1-2.54-15.52-2.16-22.07,1.12A2.75,2.75,0,0,1,216.91,275.12Z" transform="translate(-16.47 -1.27)" fill="#db6356"/><path d="M448.1,485.63q-73.1,65.4-146.2,0L306,451.45l12.36-102.52.05-.5H432.6l8,70.87Z" transform="translate(-16.47 -1.27)" fill="#f7907c"/><path d="M440.61,419.3s-16.82,25.33-73.8,32.8a224.53,224.53,0,0,1-60.79-.65l12.36-102.52,83.4,17.94Z" transform="translate(-16.47 -1.27)" fill="#bc5b51"/><path d="M487.28,112.08H262.72s-37.41,158.52-8.51,239.77C294.47,465,455.53,465,495.79,351.85,524.69,270.6,487.28,112.08,487.28,112.08Z" transform="translate(-16.47 -1.27)" fill="#fe9780"/><ellipse cx="306.12" cy="251.43" rx="9.7" ry="15.65" fill="#302545"/><ellipse cx="416.9" cy="251.43" rx="9.7" ry="15.65" fill="#302545"/><path d="M377.27,323.48a18,18,0,0,1-13.18-5.24c-2.86-3-8.47-11.66,1.21-27,7-11.09,6.23-28.5,6.22-28.67a2.78,2.78,0,0,1,5.55-.28c0,.79.86,19.32-7.07,31.91-5.35,8.5-6,15.87-1.88,20.24,4,4.16,11.65,4.67,17.86,1.18a2.78,2.78,0,1,1,2.73,4.84A23.45,23.45,0,0,1,377.27,323.48Z" transform="translate(-16.47 -1.27)" fill="#db6356"/><path d="M377.07,357a99.1,99.1,0,0,1-42.22-9.81,2.78,2.78,0,1,1,2.35-5c26.46,12.35,53.28,12.35,79.74,0a2.78,2.78,0,1,1,2.35,5A99.1,99.1,0,0,1,377.07,357Z" transform="translate(-16.47 -1.27)" fill="#db6356"/><path d="M375,377.81a79.91,79.91,0,0,1-18.21-2.11,2.78,2.78,0,1,1,1.26-5.42,73.81,73.81,0,0,0,33.9,0,2.78,2.78,0,1,1,1.26,5.42A79.91,79.91,0,0,1,375,377.81Z" transform="translate(-16.47 -1.27)" fill="#db6356"/><path d="M301.16,219.2c-1.22.5-2.1-.78-1.71-2.1,4.82-16.17,27.94-21.62,36.64-13.3,8.11,7.76-9.23,6.54-22.35,10.77C307.66,216.54,303.6,218.19,301.16,219.2Z" transform="translate(-16.47 -1.27)" fill="#302545"/><path d="M451,219.2c1.21.5,2.1-.78,1.71-2.1-4.82-16.17-27.94-21.62-36.64-13.3-8.11,7.76,9.23,6.54,22.34,10.77C444.47,216.54,448.53,218.19,451,219.2Z" transform="translate(-16.47 -1.27)" fill="#302545"/><path d="M505.62,237.45A279.62,279.62,0,0,1,484,172.72C476.56,135.67,478.22,97,478.22,97l33.36,4.12Z" transform="translate(-16.47 -1.27)" fill="#3d2031"/><path d="M244.31,237.45a279.07,279.07,0,0,0,21.59-64.73c7.48-37.05,5.81-75.74,5.81-75.74l-33.36,4.12Z" transform="translate(-16.47 -1.27)" fill="#3d2031"/><path d="M226.86,148.46s31,18.26,98.69,12.22S451.2,122,474.44,121.12s32.3,4.41,32.3,4.41L490,94.81,371.45,71.72l-94.1,6.17L226.86,94.81Z" transform="translate(-16.47 -1.27)" fill="#3d2031"/><ellipse cx="283.56" cy="290.29" rx="22.6" ry="8.77" fill="#f7816d"/><ellipse cx="437.63" cy="290.29" rx="22.6" ry="8.77" fill="#f7816d"/><path d="M578.39,748.59a1.67,1.67,0,0,1-1.66-1.57l-3.76-67a1.67,1.67,0,1,1,3.33-.19l3.76,67a1.67,1.67,0,0,1-1.57,1.76Z" transform="translate(-16.47 -1.27)" fill="#302545"/><path d="M175.74,748.59h-.09a1.66,1.66,0,0,1-1.57-1.76l3.76-67a1.67,1.67,0,1,1,3.33.19l-3.76,67A1.67,1.67,0,0,1,175.74,748.59Z" transform="translate(-16.47 -1.27)" fill="#302545"/></svg>