<svg xmlns="http://www.w3.org/2000/svg" viewBox="0 0 691.22 734"><circle cx="345.61" cy="363.67" r="345.61" fill="#f9dfaf"/><circle cx="344.03" cy="52.42" r="52.42" fill="#3d2031"/><ellipse cx="344.03" cy="80.89" rx="48.78" ry="26.21" fill="#f64c4a"/><path d="M699.78,739.82H50.22s0-134.13,46.4-165.06c25-16.67,103.92-45.75,171.37-69,57.7-19.9,107-35.55,107-35.55s49.18,15.62,106.79,35.48c67.51,23.28,146.56,52.4,171.59,69.09C699.78,605.69,699.78,739.82,699.78,739.82Z" transform="translate(-29.39 -8)" fill="#d35e54"/><path d="M551.35,548.67c-18.73,35.77-99.72,191.15-99.72,191.15H302.23s-81-155.38-99.72-191.15a20.82,20.82,0,0,1-.24-19.56c21.67-8,44.28-16,65.72-23.36l4-1.37c56-19.26,103-34.2,103-34.2s49,15.58,106.53,35.41l.26.08c23,7.94,47.44,16.57,70.56,25.15A20.65,20.65,0,0,1,551.35,548.67Z" transform="translate(-29.39 -8)" fill="#fcdfb9"/><path d="M481.79,505.67c-12.12,17.51-44.14,52.88-105.19,53.08-54.21.18-92.37-34.74-108.61-53,57.7-19.9,107-35.55,107-35.55S424.18,485.81,481.79,505.67Z" transform="translate(-29.39 -8)" fill="#f9cd98"/><path d="M492.06,260.13s26.17-17.62,44.79,4.53-5,74-44.79,73-32.2-42.06-32.2-42.06Z" transform="translate(-29.39 -8)" fill="#f7907c"/><path d="M254.78,260.13s-26.17-17.62-44.79,4.53,5,74,44.79,73S287,295.57,287,295.57Z" transform="translate(-29.39 -8)" fill="#f7907c"/><path d="M492,307.34a2.87,2.87,0,0,1-.77-.11,2.69,2.69,0,0,1-1.8-3.34,58.59,58.59,0,0,1,7.18-14.59c6.74-9.9,15.51-15.58,25.37-16.41a2.68,2.68,0,0,1,.45,5.34c-20,1.69-27.79,26.94-27.87,27.2A2.68,2.68,0,0,1,492,307.34Z" transform="translate(-29.39 -8)" fill="#db6356"/><path d="M521.62,294.34a2.75,2.75,0,0,1-1.2-.29c-6.09-3.05-13-3.4-20.56-1a2.68,2.68,0,1,1-1.6-5.11c8.92-2.79,17.18-2.33,24.56,1.36a2.68,2.68,0,0,1-1.2,5.08Z" transform="translate(-29.39 -8)" fill="#db6356"/><path d="M257,307.34a2.68,2.68,0,0,1-2.57-1.91h0c-.07-.26-7.9-25.51-27.86-27.2a2.68,2.68,0,1,1,.45-5.34c9.86.83,18.63,6.51,25.37,16.41a58.59,58.59,0,0,1,7.18,14.59,2.69,2.69,0,0,1-1.81,3.34A2.85,2.85,0,0,1,257,307.34Z" transform="translate(-29.39 -8)" fill="#db6356"/><path d="M227.32,294.34a2.68,2.68,0,0,1-1.2-5.08c7.38-3.69,15.65-4.15,24.56-1.36a2.68,2.68,0,1,1-1.59,5.11c-7.55-2.36-14.47-2-20.57,1A2.69,2.69,0,0,1,227.32,294.34Z" transform="translate(-29.39 -8)" fill="#db6356"/><path d="M443.29,496.27q-68.3,61.1-136.58,0l3.84-31.93,11.55-95.78,0-.47H428.82l7.47,66.2Z" transform="translate(-29.39 -8)" fill="#f7907c"/><path d="M436.29,434.29S420.58,458,367.35,464.94a210.37,210.37,0,0,1-56.8-.6l11.55-95.78L400,385.32Z" transform="translate(-29.39 -8)" fill="#bc5b51"/><path d="M487.84,371.28C450.24,477,299.76,477,262.15,371.28c-11.26-31.68-11.75-75.94-8.47-116.75A806.39,806.39,0,0,1,270.1,147.27H479.9a804.47,804.47,0,0,1,16.42,107.26C499.6,295.34,499.12,339.61,487.84,371.28Z" transform="translate(-29.39 -8)" fill="#fe9780"/><ellipse cx="299.28" cy="266.68" rx="7.05" ry="8.29" fill="#302545"/><ellipse cx="393.22" cy="267.75" rx="7.05" ry="8.29" fill="#302545"/><path d="M377.14,340.25c-5.18,0-10-1.82-13.08-5.29-2.34-2.66-6.84-10.2,1.87-22.86,6.44-9.36,5.74-24.1,5.73-24.24A2.69,2.69,0,0,1,374.2,285a2.65,2.65,0,0,1,2.81,2.53c0,.67.82,16.68-6.67,27.57-4.69,6.82-5.49,12.6-2.26,16.28,3.51,4,11.08,4.64,17.23,1.48a2.68,2.68,0,1,1,2.45,4.76A23.27,23.27,0,0,1,377.14,340.25Z" transform="translate(-29.39 -8)" fill="#db6356"/><path d="M497,264.4h0a62.7,62.7,0,0,1-6.42-8.34c-6.72-10.22-15.46-28.81-9.12-50.13,13.69-46.06-10.39-58.65-10.39-58.65l30.9-7.61C520.58,171.09,504.31,221.62,497,264.4Z" transform="translate(-29.39 -8)" fill="#6d435d"/><path d="M268.5,205.92c6.32,21.29-2.39,39.86-9.11,50.1a63.36,63.36,0,0,1-6.42,8.34l0,0c-11.12-41.66-20.14-100.07-5.17-123.73l31.12,6.6S254.8,159.86,268.5,205.92Z" transform="translate(-29.39 -8)" fill="#6d435d"/><ellipse cx="275.57" cy="306.95" rx="21.12" ry="8.2" fill="#f7816d"/><ellipse cx="419.52" cy="306.95" rx="21.12" ry="8.2" fill="#f7816d"/><path d="M565,742a1.6,1.6,0,0,1-1.6-1.52l-3.52-62.56a1.61,1.61,0,0,1,3.21-.18l3.52,62.56a1.61,1.61,0,0,1-1.52,1.7Z" transform="translate(-29.39 -8)" fill="#302545"/><path d="M188.84,742h-.09a1.61,1.61,0,0,1-1.52-1.7l3.51-62.56a1.62,1.62,0,0,1,1.7-1.51,1.6,1.6,0,0,1,1.51,1.69l-3.51,62.56A1.61,1.61,0,0,1,188.84,742Z" transform="translate(-29.39 -8)" fill="#302545"/><path d="M502.62,143.92c0,9.77-7.17,35.28-18.08,26.7-30.12-23.67-41.24,13-107.6,17.29s-86.36-44-110.82-20.59c-9.24,8.84-18.74-15-18.74-23.4,0-28.65,93-67.5,127.62-67.7C420.47,76,502.62,115.27,502.62,143.92Z" transform="translate(-29.39 -8)" fill="#3d2031"/><path d="M343,739.82H302.23s-81-155.38-99.72-191.15a20.82,20.82,0,0,1-.24-19.56c8.84-18.6,40.68-32.79,54-35.37A13.37,13.37,0,0,1,271,501.33l.92,3.05Z" transform="translate(-29.39 -8)" fill="#c14f49"/><path d="M551.35,548.67c-18.73,35.77-99.72,191.15-99.72,191.15H410.89l70.64-234.23,1.29-4.26a13.38,13.38,0,0,1,14.8-7.59c13.71,2.65,47.11,17.65,54.73,37.08A20.65,20.65,0,0,1,551.35,548.67Z" transform="translate(-29.39 -8)" fill="#c14f49"/><path d="M487.84,371.28C450.24,477,299.76,477,262.15,371.28c-10.36-29.15-11.6-68.95-9.18-106.92a63.36,63.36,0,0,0,6.42-8.34c1.37,46.82,6.35,83.35,30.46,100.33,9.82,6.93,17.12,17,19.67,28.71,6.75,31.06,37,43.54,65.48,41.59,28.5,2,58.73-10.53,65.48-41.59,2.55-11.74,9.85-21.78,19.68-28.71,24.09-17,29.08-53.49,30.45-100.3a62.7,62.7,0,0,0,6.42,8.34h0C499.45,302.35,498.22,342.15,487.84,371.28Z" transform="translate(-29.39 -8)" fill="#3d2031"/><path d="M399.9,447.45H354c6.08-16.91,9.51-33,5.19-46.86a6.1,6.1,0,0,1,6.71-7.86,77.57,77.57,0,0,0,22.31,0,6.1,6.1,0,0,1,6.72,7.86C390.49,414.61,393.69,430.64,399.9,447.45Z" transform="translate(-29.39 -8)" fill="#3d2031"/><path d="M439.89,359.75c-9.52,9.11-26.71,2.67-42.17-10.9-8-7-15.27-4.5-20.79,0-5.52-4.55-12.84-7-20.78,0-15.46,13.57-32.65,20-42.17,10.9-1.33,14.89,15.59,20.77,46,17.49,7.64-.82,13.09-2.43,17-4.31,3.9,1.88,9.36,3.49,17,4.31C424.29,380.52,441.22,374.64,439.89,359.75Z" transform="translate(-29.39 -8)" fill="#3d2031"/><path d="M323.37,312.78a38.36,38.36,0,1,1,38.37-38.36A38.41,38.41,0,0,1,323.37,312.78Zm0-71.37a33,33,0,1,0,33,33A33,33,0,0,0,323.37,241.41Z" transform="translate(-29.39 -8)" fill="#302545"/><path d="M430.49,312.78a38.36,38.36,0,1,1,38.36-38.36A38.41,38.41,0,0,1,430.49,312.78Zm0-71.37a33,33,0,1,0,33,33A33,33,0,0,0,430.49,241.41Z" transform="translate(-29.39 -8)" fill="#302545"/><path d="M394.81,276.22a2.67,2.67,0,0,1-1.89-.78,22.63,22.63,0,0,0-32,0,2.68,2.68,0,0,1-3.79-3.79,28,28,0,0,1,39.55,0,2.68,2.68,0,0,1-1.9,4.57Z" transform="translate(-29.39 -8)" fill="#302545"/></svg>