<svg xmlns="http://www.w3.org/2000/svg" viewBox="0 0 688 744.26"><circle cx="344" cy="365.5" r="344" fill="#def9f4"/><path d="M604.86,568.1c-73.39-233-21.55-380.42-76.81-474.5C492.42,33,373.41,34.3,326.21,49.18s-66.77,441-66.77,441Z" transform="translate(-31 -2.87)" fill="#3d2031"/><path d="M136.41,605.83c63.89-179.16,17.88-382.54,46.08-470.41C225.15,2.48,351.79-16,446.39,17.23c54.41,19.1,57.22,135.62,57.22,135.62L446.39,555Z" transform="translate(-31 -2.87)" fill="#3d2031"/><path d="M666.08,744.93H83.92s1.55-182.61,41.59-216.69C178,483.55,375,463.35,375,463.35s194.13,17.21,249.49,64.89C664.32,562.55,666.08,744.93,666.08,744.93Z" transform="translate(-31 -2.87)" fill="#ffac33"/><path d="M288.36,480.51s-75.7,98.57-13.54,135.09S382.06,570,382.06,570V463.37S306.86,461.88,288.36,480.51Z" transform="translate(-31 -2.87)" fill="#fff"/><path d="M461.64,480.51s75.7,98.57,13.54,135.09S367.94,570,367.94,570V463.37S443.14,461.88,461.64,480.51Z" transform="translate(-31 -2.87)" fill="#fff"/><path d="M492.44,232.79s27.33-18.4,46.78,4.73-5.26,77.26-46.78,76.21S458.8,269.8,458.8,269.8Z" transform="translate(-31 -2.87)" fill="#f7907c"/><path d="M492.37,282a2.85,2.85,0,0,1-.76-.11,2.68,2.68,0,0,1-1.8-3.32,61.33,61.33,0,0,1,7.48-15.2c7-10.31,16.14-16.22,26.4-17.08a2.66,2.66,0,0,1,.45,5.31c-20.94,1.77-29.14,28.23-29.22,28.5A2.65,2.65,0,0,1,492.37,282Z" transform="translate(-31 -2.87)" fill="#db6356"/><path d="M523.31,268.38a2.66,2.66,0,0,1-1.19-.28c-6.4-3.2-13.66-3.57-21.58-1.1a2.67,2.67,0,0,1-1.59-5.09c9.28-2.9,17.88-2.42,25.55,1.42a2.67,2.67,0,0,1-1.19,5.05Z" transform="translate(-31 -2.87)" fill="#db6356"/><path d="M250,232.79s-27.33-18.4-46.77,4.73,5.25,77.26,46.77,76.21,33.64-43.93,33.64-43.93Z" transform="translate(-31 -2.87)" fill="#f7907c"/><path d="M252.22,282a2.67,2.67,0,0,1-2.56-1.9h0c-.08-.27-8.27-26.73-29.21-28.5a2.66,2.66,0,1,1,.45-5.31c10.25.86,19.38,6.77,26.4,17.08a61.08,61.08,0,0,1,7.47,15.2,2.66,2.66,0,0,1-1.79,3.32A2.5,2.5,0,0,1,252.22,282Z" transform="translate(-31 -2.87)" fill="#db6356"/><path d="M221.28,268.38a2.67,2.67,0,0,1-1.19-5.05c7.67-3.84,16.27-4.32,25.55-1.42a2.67,2.67,0,0,1-1.59,5.09c-7.92-2.47-15.18-2.1-21.58,1.1A2.66,2.66,0,0,1,221.28,268.38Z" transform="translate(-31 -2.87)" fill="#db6356"/><path d="M441.84,490.59c-26.26,98.17-113.07,85.33-133.68,0l3.76-33.35,11.3-100,.06-.49H427.67L435,425.86Z" transform="translate(-31 -2.87)" fill="#f7907c"/><path d="M435,425.86s-15.38,24.72-67.48,32a192.88,192.88,0,0,1-55.59-.63l11.3-100,104.45-.49Z" transform="translate(-31 -2.87)" fill="#bc5b51"/><path d="M474.47,109.35H267.93s-34.41,159-7.83,238.28C278.61,402.83,340.55,436,371.66,436c35.37,0,92.12-33.15,110.63-88.35C508.87,268.35,474.47,109.35,474.47,109.35Z" transform="translate(-31 -2.87)" fill="#fe9780"/><ellipse cx="286.16" cy="245.52" rx="9.46" ry="13.43" fill="#302545"/><ellipse cx="394.24" cy="245.52" rx="9.46" ry="13.43" fill="#302545"/><path d="M373.41,315.56a17.48,17.48,0,0,1-12.82-5.1c-2.79-2.92-8.25-11.35,1.18-26.31,6.82-10.84,6.08-27.83,6.07-28a2.67,2.67,0,0,1,5.33-.27c0,.77.84,18.83-6.89,31.11-5.23,8.31-5.9,15.52-1.83,19.8,3.88,4.08,11.4,4.58,17.49,1.16a2.66,2.66,0,1,1,2.61,4.64A22.81,22.81,0,0,1,373.41,315.56Z" transform="translate(-31 -2.87)" fill="#db6356"/><path d="M298.11,220.76c-1.18.49-2.05-.75-1.66-2,4.69-15.77,27.26-21.09,35.74-13,7.91,7.58-9,6.39-21.8,10.52C304.45,218.16,300.5,219.78,298.11,220.76Z" transform="translate(-31 -2.87)" fill="#302545"/><path d="M444.28,220.76c1.19.49,2.05-.75,1.67-2-4.7-15.77-27.27-21.09-35.75-13-7.91,7.58,9,6.39,21.8,10.52C437.94,218.16,441.9,219.78,444.28,220.76Z" transform="translate(-31 -2.87)" fill="#302545"/><path d="M492.05,244.32C453.84,192,424.27,80.62,424.27,80.62l73.24,9.83Z" transform="translate(-31 -2.87)" fill="#3d2031"/><path d="M237.62,204.48C365.23,205.93,447.37,162,486.4,114.83L412.72,68.17,231.9,99.91Z" transform="translate(-31 -2.87)" fill="#3d2031"/><ellipse cx="267.05" cy="281.59" rx="22.06" ry="8.56" fill="#f7816d"/><ellipse cx="417.38" cy="281.59" rx="22.06" ry="8.56" fill="#f7816d"/><path d="M180.69,747.13a1.62,1.62,0,0,1-1.33-.7c-14-20.77,1-86.86,10.93-118.9a1.6,1.6,0,0,1,3.06.94C182,665.12,169.62,726.3,182,744.64a1.59,1.59,0,0,1-1.32,2.49Z" transform="translate(-31 -2.87)" fill="#302545"/><path d="M569.31,747.13a1.59,1.59,0,0,1-1.32-2.49c12.39-18.34,0-79.51-11.34-116.17a1.6,1.6,0,1,1,3.06-.94c9.92,32,25,98.13,10.93,118.9A1.62,1.62,0,0,1,569.31,747.13Z" transform="translate(-31 -2.87)" fill="#302545"/><path d="M334.22,335.62a242.74,242.74,0,0,1,81.56,0c.31,11.43-14.08,36.84-40.78,36.84C355.8,372.46,335.23,357.21,334.22,335.62Z" transform="translate(-31 -2.87)" fill="#d13533"/><path d="M413.1,346.63a26.85,26.85,0,0,0,2.68-11,242.74,242.74,0,0,0-81.56,0,34.87,34.87,0,0,0,2.36,11.06A242.77,242.77,0,0,1,413.1,346.63Z" transform="translate(-31 -2.87)" fill="#fff"/><circle cx="199.13" cy="295.8" r="8.41" fill="#fff"/><circle cx="481.26" cy="295.8" r="8.41" fill="#fff"/><path d="M374.6,393.09a93.15,93.15,0,0,1-19-1.95,2.67,2.67,0,1,1,1.18-5.2c.18,0,18.05,4,33.16,0a2.67,2.67,0,0,1,1.36,5.16A66.78,66.78,0,0,1,374.6,393.09Z" transform="translate(-31 -2.87)" fill="#db6356"/></svg>