<svg xmlns="http://www.w3.org/2000/svg" viewBox="0 0 682 743.62"><circle cx="341" cy="365.23" r="341" fill="#def9f4"/><ellipse cx="337.72" cy="392.42" rx="146.45" ry="189.21" fill="#53241b"/><path d="M663.54,744.63H86.46s1.54-181,41.23-214.8c19.95-17,60.94-30.39,103.91-40.49C300.73,473.11,375,465.5,375,465.5s74.22,6.58,143.62,22.89c42.35,9.95,82.9,23.52,103.7,41.44C661.8,563.83,663.54,744.63,663.54,744.63Z" transform="translate(-34 -3.19)" fill="#5fc2b9"/><path d="M191,746.81a1.61,1.61,0,0,1-1.32-.7c-13.92-20.59,1-86.1,10.83-117.86a1.59,1.59,0,1,1,3,.94c-11.24,36.33-23.51,97-11.23,115.14a1.59,1.59,0,0,1-1.31,2.48Z" transform="translate(-34 -3.19)" fill="#302545"/><path d="M576.18,746.81a1.58,1.58,0,0,1-1.31-2.48c12.28-18.17,0-78.81-11.24-115.14a1.59,1.59,0,1,1,3-.94c9.83,31.76,24.75,97.27,10.83,117.86A1.58,1.58,0,0,1,576.18,746.81Z" transform="translate(-34 -3.19)" fill="#302545"/><path d="M518.61,488.39c-4.15,18.18-9.06,39.55-14.84,64.34-20.75,88.92-58.12,152.72-87.29,191.9h-83c-29.16-39.18-66.53-103-87.28-191.9-5.68-24.36-10.54-45.42-14.63-63.39C300.73,473.11,375,465.5,375,465.5S449.21,472.08,518.61,488.39Z" transform="translate(-34 -3.19)" fill="#f2b69b"/><path d="M441.26,492.5c-26,97.32-112.08,84.59-132.52,0l3.73-33.06,11.21-99.15.05-.49H427.21l7.25,68.54Z" transform="translate(-34 -3.19)" fill="#f2b69b"/><path d="M434.46,428.34s-15.24,24.5-66.89,31.73a190.93,190.93,0,0,1-55.1-.63l11.21-99.15,103.53-.49Z" transform="translate(-34 -3.19)" fill="#d87668"/><path d="M468.61,114.59H273.85s-32.45,157.61-7.38,236.2c17.45,54.72,75.86,87.58,105.2,87.58,33.35,0,86.87-32.86,104.32-87.58C501.06,272.2,468.61,114.59,468.61,114.59Z" transform="translate(-34 -3.19)" fill="#f2b69b"/><ellipse cx="283.66" cy="249.22" rx="9.38" ry="13.31" fill="#302545"/><ellipse cx="390.8" cy="249.22" rx="9.38" ry="13.31" fill="#302545"/><path d="M373.42,324.75a17.36,17.36,0,0,1-12.71-5.06c-2.76-2.9-8.17-11.24,1.17-26.08,6.77-10.74,6-27.59,6-27.76a2.64,2.64,0,1,1,5.28-.26c0,.76.84,18.67-6.82,30.84-5.19,8.23-5.85,15.38-1.82,19.62,3.85,4.05,11.3,4.54,17.33,1.15a2.65,2.65,0,0,1,2.6,4.61A22.62,22.62,0,0,1,373.42,324.75Z" transform="translate(-34 -3.19)" fill="#d87668"/><path d="M298.78,225c-1.17.48-2-.75-1.65-2,4.66-15.64,27-20.91,35.43-12.87,7.85,7.52-8.93,6.33-21.61,10.43C305.07,222.45,301.15,224.05,298.78,225Z" transform="translate(-34 -3.19)" fill="#302545"/><path d="M443.68,225c1.17.48,2-.75,1.65-2-4.66-15.64-27-20.91-35.43-12.87-7.85,7.52,8.92,6.33,21.6,10.43C437.39,222.45,441.31,224.05,443.68,225Z" transform="translate(-34 -3.19)" fill="#302545"/><ellipse cx="264.72" cy="284.98" rx="21.86" ry="8.49" fill="#f7816d"/><ellipse cx="413.74" cy="284.98" rx="21.86" ry="8.49" fill="#f7816d"/><path d="M334.57,340.38a295.83,295.83,0,0,1,80.85,0c.31,9.23-13.95,29.73-40.42,29.73C356,370.11,335.58,357.8,334.57,340.38Z" transform="translate(-34 -3.19)" fill="#992828"/><path d="M375,349.36A44.19,44.19,0,0,0,345.63,360,48.09,48.09,0,0,0,375,370.11a44.19,44.19,0,0,0,29.37-10.62A48,48,0,0,0,375,349.36Z" transform="translate(-34 -3.19)" fill="#e05c5c"/><path d="M374.6,395.85a92.36,92.36,0,0,1-18.78-1.93,2.64,2.64,0,1,1,1.17-5.15c.17,0,17.89,4,32.87,0a2.64,2.64,0,1,1,1.35,5.11A66.07,66.07,0,0,1,374.6,395.85Z" transform="translate(-34 -3.19)" fill="#d87668"/><path d="M375.11,654a651.9,651.9,0,0,1-97.85-7.19,493.89,493.89,0,0,0,56.25,97.85h83a494.51,494.51,0,0,0,56.25-97.81A653.38,653.38,0,0,1,375.11,654Z" transform="translate(-34 -3.19)" fill="#fff"/><path d="M375.11,577.34h0c-22.81,0-83.27-46.17-83.27-101.63a2.64,2.64,0,0,1,5.28,0c0,31.11,19.88,56,31.73,68.14,17.95,18.31,37.22,28.2,46.26,28.2h0c8.94,0,28.58-10.55,46-28.2,11.95-12.14,32-37.13,32-68.14a2.64,2.64,0,0,1,5.28,0c0,32.89-21,59.13-33.53,71.85C407.85,564.81,386.93,577.34,375.11,577.34Z" transform="translate(-34 -3.19)" fill="#ef7c2e"/><path d="M455.3,130.85s-22.77,31.33-120.73,71.42C210.78,252.93,233.53,458.58,327,498c-.17,7.4-149.12,53.41-176-54C122.25,329.39,180.1,305.29,191.63,206.4,202.33,114.59,225.27,13.4,342.38,4,457.56-5.21,457.24,64.61,455.3,130.85Z" transform="translate(-34 -3.19)" fill="#732318"/><path d="M422.89,40.15s89.84-11.87,104.41,114,69.1,109.52,69.1,223.63c0,159.11-161.2,140.43-168.19,114.68,0,0,90.71-3.36,68.39-140.1C486.54,290.7,452,178.13,450.21,143l-1.82-35.16Z" transform="translate(-34 -3.19)" fill="#732318"/><path d="M375.11,599.11a13.53,13.53,0,1,1,13.53-13.53A13.55,13.55,0,0,1,375.11,599.11Zm0-21.77a8.25,8.25,0,1,0,8.24,8.24A8.26,8.26,0,0,0,375.11,577.34Z" transform="translate(-34 -3.19)" fill="#ef7c2e"/></svg>