<svg xmlns="http://www.w3.org/2000/svg" viewBox="0 0 658 741.38"><circle cx="329" cy="364.35" r="329" fill="#def9f4"/><path d="M648.88,743.62H101.12S102.58,577.08,140.25,546C170,521.5,248.79,505.06,307,495.86c38.58-6.12,68.05-9.05,68.05-9.05s29.45,2.53,68.07,8.38C500.63,503.9,578.58,520,609.75,546,647.22,577.29,648.88,743.62,648.88,743.62Z" transform="translate(-46 -4.31)" fill="#ffac33"/><path d="M443.07,495.18l-3.9,100.58-1.65,42.58-4.08,105.28,0,.54H316.58l0-.54-4.08-105.28-1.65-42.58L307,495.86c38.58-6.12,68.05-9.05,68.05-9.05S404.45,489.35,443.07,495.18Z" transform="translate(-46 -4.31)" fill="#ffab94"/><circle cx="219.35" cy="371.11" r="61.46" fill="#3d2031"/><circle cx="433.41" cy="371.11" r="61.46" fill="#3d2031"/><circle cx="325.42" cy="66.24" r="66.24" fill="#3d2031"/><ellipse cx="325.42" cy="115.37" rx="66.99" ry="41.23" fill="#f04847"/><path d="M533,230.2c0,94.28-71.63,212.68-160,212.68s-160-118.4-160-212.68,71.63-128.73,160-128.73S533,135.92,533,230.2Z" transform="translate(-46 -4.31)" fill="#3d2031"/><path d="M485.5,283.39s25.72-17.31,44,4.45-4.94,72.7-44,71.71-31.65-41.34-31.65-41.34Z" transform="translate(-46 -4.31)" fill="#f7907c"/><path d="M485.44,329.7a2.27,2.27,0,0,1-.73-.11,2.55,2.55,0,0,1-1.72-3.17,57.58,57.58,0,0,1,7-14.31c6.61-9.71,15.21-15.28,24.87-16.09a2.55,2.55,0,1,1,.43,5.08c-19.73,1.66-27.38,26.53-27.45,26.78A2.55,2.55,0,0,1,485.44,329.7Z" transform="translate(-46 -4.31)" fill="#db6356"/><path d="M514.54,316.92a2.48,2.48,0,0,1-1.14-.27c-6-3-12.83-3.35-20.26-1a2.55,2.55,0,1,1-1.53-4.87c8.74-2.73,16.84-2.28,24.08,1.34a2.55,2.55,0,0,1-1.15,4.83Z" transform="translate(-46 -4.31)" fill="#db6356"/><path d="M257.35,283.39s-25.72-17.31-44,4.45,4.94,72.7,44,71.71S289,318.21,289,318.21Z" transform="translate(-46 -4.31)" fill="#f7907c"/><path d="M259.48,329.7a2.54,2.54,0,0,1-2.44-1.82c-.1-.32-7.81-25.12-27.46-26.78A2.55,2.55,0,0,1,230,296c9.66.81,18.26,6.38,24.87,16.09a56.76,56.76,0,0,1,7,14.31,2.55,2.55,0,0,1-1.71,3.17A2.35,2.35,0,0,1,259.48,329.7Z" transform="translate(-46 -4.31)" fill="#db6356"/><path d="M230.37,316.92a2.55,2.55,0,0,1-1.14-4.83c7.23-3.62,15.33-4.07,24.07-1.34a2.55,2.55,0,0,1-1.52,4.87c-7.44-2.32-14.26-2-20.27,1A2.48,2.48,0,0,1,230.37,316.92Z" transform="translate(-46 -4.31)" fill="#db6356"/><path d="M437.89,526c-24.7,92.36-106.38,80.28-125.78,0l3.54-31.38,10.64-94.12,0-.46h98.23l6.89,65.05Z" transform="translate(-46 -4.31)" fill="#ffab94"/><path d="M431.45,465.05S417,488.31,368,495.17a181.72,181.72,0,0,1-52.3-.59l10.64-94.12,98.27-.46Z" transform="translate(-46 -4.31)" fill="#dd726c"/><path d="M468.59,167.25H274.26s-32.38,149.6-7.37,224.19c17.42,51.94,75.69,83.13,105,83.13,33.28,0,86.68-31.19,104.09-83.13C501,316.85,468.59,167.25,468.59,167.25Z" transform="translate(-46 -4.31)" fill="#ffab94"/><ellipse cx="274.58" cy="293.76" rx="8.9" ry="9.76" fill="#302545"/><ellipse cx="376.27" cy="293.76" rx="8.9" ry="9.76" fill="#302545"/><path d="M373.51,361.32a16.51,16.51,0,0,1-12.1-4.82c-2.63-2.76-7.78-10.7,1.11-24.8,6.41-10.19,5.71-26.17,5.71-26.33a2.55,2.55,0,1,1,5.09-.25c0,.72.8,17.73-6.49,29.29-4.91,7.8-5.54,14.57-1.73,18.58,3.65,3.83,10.7,4.29,16.41,1.08a2.55,2.55,0,0,1,2.5,4.45A21.55,21.55,0,0,1,373.51,361.32Z" transform="translate(-46 -4.31)" fill="#db6356"/><path d="M302.66,272.07c-1.12.46-1.93-.71-1.57-1.92,4.42-14.85,25.65-19.85,33.63-12.21,7.45,7.13-8.47,6-20.51,9.89C308.63,269.63,304.9,271.15,302.66,272.07Z" transform="translate(-46 -4.31)" fill="#302545"/><path d="M440.19,272.07c1.11.46,1.93-.71,1.57-1.92-4.42-14.85-25.65-19.85-33.63-12.21-7.45,7.13,8.47,6,20.51,9.89C434.22,269.63,438,271.15,440.19,272.07Z" transform="translate(-46 -4.31)" fill="#302545"/><ellipse cx="256.6" cy="327.7" rx="20.75" ry="8.05" fill="#f7816d"/><ellipse cx="398.04" cy="327.7" rx="20.75" ry="8.05" fill="#f7816d"/><path d="M193.25,745.69a1.54,1.54,0,0,1-1.25-.63c-13.71-19,1-79.31,10.64-108.56a1.53,1.53,0,1,1,2.9,1c-11,33.39-23.1,89.13-11.06,105.81a1.51,1.51,0,0,1-.34,2.13A1.48,1.48,0,0,1,193.25,745.69Z" transform="translate(-46 -4.31)" fill="#302545"/><path d="M556.78,745.69a1.49,1.49,0,0,1-.9-.29,1.52,1.52,0,0,1-.34-2.13c12-16.68,0-72.42-11.06-105.81a1.53,1.53,0,1,1,2.9-1c9.68,29.24,24.35,89.57,10.64,108.56A1.54,1.54,0,0,1,556.78,745.69Z" transform="translate(-46 -4.31)" fill="#302545"/><path d="M413.37,374.83c.18,6.52-4.74,17.9-14.25,25.83A37.08,37.08,0,0,1,375,409.49,40.21,40.21,0,0,1,350.9,401c-8-6.16-13.76-15.3-14.27-26.15Q372.09,387.64,413.37,374.83Z" transform="translate(-46 -4.31)" fill="#992828"/><path d="M399.12,400.66A37.08,37.08,0,0,1,375,409.49,40.21,40.21,0,0,1,350.9,401a37.07,37.07,0,0,1,24.1-8.82A40.32,40.32,0,0,1,399.12,400.66Z" transform="translate(-46 -4.31)" fill="#e05c5c"/><circle cx="192.7" cy="341.07" r="7.91" fill="#fff"/><circle cx="458.15" cy="341.07" r="7.91" fill="#fff"/><path d="M376.08,425.24a88.18,88.18,0,0,1-17.84-1.83,2.55,2.55,0,0,1,1.13-5c.17,0,17,3.76,31.18,0a2.55,2.55,0,1,1,1.3,4.93A62.57,62.57,0,0,1,376.08,425.24Z" transform="translate(-46 -4.31)" fill="#db6356"/><path d="M257.57,272.18C322.62,261.59,370,205,378.09,152.66h-126Z" transform="translate(-46 -4.31)" fill="#3d2031"/><path d="M486.86,272.18C421.81,261.59,374.48,205,366.34,152.66h126Z" transform="translate(-46 -4.31)" fill="#3d2031"/><path d="M437.52,638.34l-4.08,105.28,0,.54H316.58l0-.54-4.08-105.28A419.28,419.28,0,0,0,437.52,638.34Z" transform="translate(-46 -4.31)" fill="#f97b3d"/></svg>