<svg xmlns="http://www.w3.org/2000/svg" viewBox="0 0 696 741.54"><circle cx="348" cy="364.06" r="348" fill="#def9f4"/><path d="M544.94,196.52,370.53,165.79v-.2l-.52.1-.5-.1v.19l-178.76,31.3c4.89,143.38-53.34,88.82-43.44,175.9,7.5,66,151,114.45,223.47,114.75C441,488,577.61,438.89,584.86,373,594.43,285.86,540.22,339.89,544.94,196.52Z" transform="translate(-27 -4.23)" fill="#603550"/><ellipse cx="340.76" cy="181.3" rx="177.49" ry="181.3" fill="#603550"/><path d="M669.46,744.15H80.54s1.56-184.73,42.07-219.21C175.72,479.73,375,459.29,375,459.29s196.39,17.41,252.39,65.65C667.69,559.65,669.46,744.15,669.46,744.15Z" transform="translate(-27 -4.23)" fill="#8157d3"/><path d="M493.8,226.05s27.65-18.61,47.32,4.79S535.81,309,493.8,307.93s-34-44.44-34-44.44Z" transform="translate(-27 -4.23)" fill="#f7907c"/><path d="M493.74,275.79a2.63,2.63,0,0,1-.78-.11,2.69,2.69,0,0,1-1.81-3.35A61.56,61.56,0,0,1,498.71,257c7.1-10.43,16.33-16.41,26.71-17.28a2.69,2.69,0,0,1,.45,5.37c-21.18,1.79-29.47,28.56-29.55,28.83A2.69,2.69,0,0,1,493.74,275.79Z" transform="translate(-27 -4.23)" fill="#db6356"/><path d="M525,262.06a2.59,2.59,0,0,1-1.2-.29c-6.48-3.24-13.82-3.61-21.83-1.11a2.7,2.7,0,0,1-1.61-5.15c9.39-2.93,18.09-2.45,25.85,1.44a2.7,2.7,0,0,1-1.21,5.11Z" transform="translate(-27 -4.23)" fill="#db6356"/><path d="M248.5,226.05s-27.65-18.61-47.32,4.79S206.5,309,248.5,307.93s34-44.44,34-44.44Z" transform="translate(-27 -4.23)" fill="#f7907c"/><path d="M250.79,275.8a2.7,2.7,0,0,1-2.58-1.93h0c-.08-.27-8.37-27-29.56-28.83a2.69,2.69,0,1,1,.46-5.37c10.37.87,19.61,6.85,26.7,17.28a61.8,61.8,0,0,1,7.57,15.38,2.7,2.7,0,0,1-1.82,3.35A2.58,2.58,0,0,1,250.79,275.8Z" transform="translate(-27 -4.23)" fill="#db6356"/><path d="M219.49,262.06a2.7,2.7,0,0,1-1.21-5.11c7.77-3.89,16.47-4.37,25.85-1.44a2.7,2.7,0,0,1-1.61,5.15c-8-2.5-15.35-2.13-21.82,1.11A2.63,2.63,0,0,1,219.49,262.06Z" transform="translate(-27 -4.23)" fill="#db6356"/><path d="M442.62,486.85c-26.57,99.31-114.38,86.32-135.24,0l3.81-33.74,11.43-101.19.05-.5H428.28l7.41,69.95Z" transform="translate(-27 -4.23)" fill="#f7907c"/><path d="M435.69,421.37s-15.56,25-68.27,32.38a194.76,194.76,0,0,1-56.23-.64l11.43-101.19,105.66-.5Z" transform="translate(-27 -4.23)" fill="#c95c57"/><path d="M475.62,101.17H266.68S231.87,262,258.77,342.22c18.72,55.85,81.37,89.38,112.86,89.38,35.78,0,93.18-33.53,111.91-89.38C510.43,262,475.62,101.17,475.62,101.17Z" transform="translate(-27 -4.23)" fill="#fe9780"/><ellipse cx="289.48" cy="237.6" rx="9.57" ry="13.59" fill="#302545"/><ellipse cx="398.82" cy="237.6" rx="9.57" ry="13.59" fill="#302545"/><path d="M373.39,309.79a17.74,17.74,0,0,1-13-5.16c-2.82-3-8.34-11.48,1.19-26.62,6.91-11,6.16-28.16,6.15-28.33a2.7,2.7,0,0,1,5.39-.27c0,.78.85,19-7,31.47-5.29,8.41-6,15.71-1.85,20,3.93,4.13,11.53,4.63,17.69,1.17a2.7,2.7,0,0,1,2.64,4.7A23.09,23.09,0,0,1,373.39,309.79Z" transform="translate(-27 -4.23)" fill="#db6356"/><path d="M297.22,213.88c-1.2.5-2.08-.76-1.69-2.07,4.76-16,27.58-21.34,36.16-13.13,8,7.67-9.11,6.46-22.05,10.64C303.63,211.26,299.63,212.89,297.22,213.88Z" transform="translate(-27 -4.23)" fill="#302545"/><path d="M445.09,213.88c1.2.5,2.07-.76,1.68-2.07-4.75-16-27.58-21.34-36.16-13.13-8,7.67,9.11,6.46,22.05,10.64C438.67,211.26,442.67,212.89,445.09,213.88Z" transform="translate(-27 -4.23)" fill="#302545"/><ellipse cx="270.16" cy="274.09" rx="22.31" ry="8.66" fill="#f7816d"/><ellipse cx="422.23" cy="274.09" rx="22.31" ry="8.66" fill="#f7816d"/><path d="M187.17,745.77a1.61,1.61,0,0,1-1.34-.71c-14.21-21,1-87.87,11-120.29a1.62,1.62,0,0,1,3.09,1c-11.47,37.08-24,99-11.46,117.51a1.62,1.62,0,0,1-.44,2.25A1.57,1.57,0,0,1,187.17,745.77Z" transform="translate(-27 -4.23)" fill="#302545"/><path d="M580.31,745.77a1.62,1.62,0,0,1-1.34-2.53c12.53-18.54,0-80.43-11.47-117.51a1.62,1.62,0,0,1,3.1-1c10,32.42,25.25,99.28,11,120.29A1.61,1.61,0,0,1,580.31,745.77Z" transform="translate(-27 -4.23)" fill="#302545"/><circle cx="206.84" cy="294.37" r="8.5" fill="#e8356e"/><circle cx="481.46" cy="294.37" r="8.5" fill="#e8356e"/><path d="M375.63,348.12a178.11,178.11,0,0,1-36-3.69,2.7,2.7,0,1,1,1.2-5.26c.35.08,35.33,7.84,65.05,0a2.7,2.7,0,0,1,1.37,5.22A126,126,0,0,1,375.63,348.12Z" transform="translate(-27 -4.23)" fill="#db6356"/><path d="M374.2,371.94A44.44,44.44,0,0,1,361.36,370a2.7,2.7,0,0,1,1.72-5.12h0c.11,0,11.27,3.68,20.59.05a2.69,2.69,0,1,1,2,5A31.61,31.61,0,0,1,374.2,371.94Z" transform="translate(-27 -4.23)" fill="#db6356"/><path d="M319.47,95.45s1.77,35.47,51.68,80.2,71.47,38,71.47,38l-16.8-58.91c22.37,35.14,45,54.53,67.91,59.27V90.39L416.26,60Z" transform="translate(-27 -4.23)" fill="#603550"/><path d="M238.74,214c44.61-15.92,78.9-52.73,103.88-108.41L268.17,49.87l-49.29,50.65Z" transform="translate(-27 -4.23)" fill="#603550"/><path d="M377.11,585.31c-37.38,0-57.33-20.82-58.22-21.76a1.62,1.62,0,1,1,2.36-2.21c.22.23,22.59,23.48,63.28,20.46,52.25-3.87,74.57-65.88,74.79-66.51a1.62,1.62,0,1,1,3.05,1.07,133.77,133.77,0,0,1-18.1,32.73c-16.39,21.84-37,34.26-59.5,35.93C382.14,585.22,379.58,585.31,377.11,585.31Z" transform="translate(-27 -4.23)" fill="#302545"/></svg>