<svg xmlns="http://www.w3.org/2000/svg" viewBox="0 0 692.68 738"><circle cx="346.34" cy="362.32" r="346.34" fill="#def9f4"/><path d="M371.17,427.15c61.63,0,120.24,5.87,173.27,16.44v-261H190.57V445.09C245.52,433.58,306.69,427.15,371.17,427.15Z" transform="translate(-28.66 -6)" fill="#6b2253"/><ellipse cx="339.14" cy="180.44" rx="176.65" ry="180.44" fill="#6b2253"/><path d="M668.06,742.39H81.94s1.56-183.85,41.87-218.16c10.1-8.6,25.54-16.31,43.9-23.15,22.73-8.46,49.93-15.59,77-21.43C310.16,465.54,375,458.89,375,458.89s66.59,5.91,133.12,20.36c26,5.66,52,12.63,74,21.06,18.14,6.94,33.57,14.89,44.05,23.92C666.29,558.76,668.06,742.39,668.06,742.39Z" transform="translate(-28.66 -6)" fill="#f9b5a0"/><path d="M493.24,226.76s27.51-18.52,47.09,4.76-5.29,77.79-47.09,76.73S459.37,264,459.37,264Z" transform="translate(-28.66 -6)" fill="#ffaa9f"/><path d="M493.17,276.27a2.53,2.53,0,0,1-.77-.12,2.67,2.67,0,0,1-1.8-3.33,61.06,61.06,0,0,1,7.52-15.31c7.07-10.38,16.26-16.33,26.58-17.2a2.68,2.68,0,1,1,.45,5.35c-21.08,1.78-29.33,28.43-29.41,28.69A2.69,2.69,0,0,1,493.17,276.27Z" transform="translate(-28.66 -6)" fill="#db6356"/><path d="M524.31,262.6a2.68,2.68,0,0,1-1.19-.29c-6.45-3.22-13.75-3.59-21.73-1.1a2.69,2.69,0,0,1-1.6-5.13c9.34-2.92,18-2.44,25.73,1.43a2.69,2.69,0,0,1-1.21,5.09Z" transform="translate(-28.66 -6)" fill="#db6356"/><path d="M249.1,226.76s-27.51-18.52-47.09,4.76,5.29,77.79,47.09,76.73S283,264,283,264Z" transform="translate(-28.66 -6)" fill="#ffaa9f"/><path d="M251.38,276.27a2.69,2.69,0,0,1-2.57-1.92h0c-.08-.26-8.33-26.91-29.41-28.69a2.68,2.68,0,1,1,.45-5.35c10.33.87,19.52,6.82,26.58,17.2A61.72,61.72,0,0,1,254,272.82a2.69,2.69,0,0,1-1.81,3.34A2.87,2.87,0,0,1,251.38,276.27Z" transform="translate(-28.66 -6)" fill="#db6356"/><path d="M220.24,262.6a2.69,2.69,0,0,1-1.21-5.09c7.73-3.87,16.39-4.35,25.73-1.43a2.69,2.69,0,0,1-1.6,5.13c-8-2.49-15.28-2.12-21.72,1.1A2.75,2.75,0,0,1,220.24,262.6Z" transform="translate(-28.66 -6)" fill="#db6356"/><path d="M438.4,486.32c-24.91,98.83-107.25,85.9-126.8,0l3.57-33.58L325.89,352l.05-.49h99l6.94,69.61Z" transform="translate(-28.66 -6)" fill="#f9b5a0"/><path d="M431.9,421.15s-19.3,20.65-54.29,26.79c-19.52,3.43-51.58,1.09-61.4-5L325.89,352l99.07-.49Z" transform="translate(-28.66 -6)" fill="#c95c57"/><path d="M475.14,102.48H267.2s-34.64,160.09-7.88,239.9c18.64,55.58,81,88.95,112.32,88.95,35.61,0,92.74-33.37,111.38-88.95C509.78,262.57,475.14,102.48,475.14,102.48Z" transform="translate(-28.66 -6)" fill="#f9b5a0"/><ellipse cx="288.1" cy="236.46" rx="9.52" ry="13.52" fill="#302545"/><path d="M559.42,624.06c10.86,35.07,24.49,98.7,11.21,118.33H179.37c-13.28-19.63.35-83.26,11.21-118.33,15-67.59-22.87-123-22.87-123,22.73-8.46,49.93-15.59,77-21.43,0,0-.77,22.27,16.33,83.83C286.35,654.36,375,646.08,375,646.08s88.64,8.28,113.92-82.6c17.1-61.56,19.2-84.23,19.2-84.23,26,5.66,52,12.63,74,21.06C582.14,500.31,544.43,556.47,559.42,624.06Z" transform="translate(-28.66 -6)" fill="#e8356e"/><ellipse cx="396.92" cy="236.46" rx="9.52" ry="13.52" fill="#302545"/><path d="M373.4,310.1A17.62,17.62,0,0,1,360.49,305c-2.81-2.94-8.3-11.42,1.19-26.49,6.87-10.91,6.12-28,6.11-28.19a2.69,2.69,0,0,1,5.37-.27c0,.77.85,19-6.94,31.32-5.27,8.37-5.94,15.63-1.84,19.93,3.91,4.11,11.48,4.61,17.6,1.17a2.68,2.68,0,1,1,2.63,4.68A23,23,0,0,1,373.4,310.1Z" transform="translate(-28.66 -6)" fill="#db6356"/><path d="M297.59,214.65c-1.2.49-2.07-.76-1.68-2.06,4.73-15.88,27.45-21.24,36-13.07,8,7.63-9.07,6.43-21.95,10.59C304,212,300,213.66,297.59,214.65Z" transform="translate(-28.66 -6)" fill="#302545"/><path d="M444.75,214.65c1.2.49,2.07-.76,1.68-2.06-4.73-15.88-27.45-21.24-36-13.07-8,7.63,9.07,6.43,21.95,10.59C438.37,212,442.35,213.66,444.75,214.65Z" transform="translate(-28.66 -6)" fill="#302545"/><ellipse cx="268.87" cy="272.78" rx="22.21" ry="8.62" fill="#f7816d"/><ellipse cx="420.22" cy="272.78" rx="22.21" ry="8.62" fill="#f7816d"/><path d="M570.63,744a1.59,1.59,0,0,1-.9-.28,1.61,1.61,0,0,1-.43-2.23c12.47-18.46,0-80-11.41-117a1.61,1.61,0,0,1,3.08-1c10,32.26,25.13,98.8,11,119.71A1.61,1.61,0,0,1,570.63,744Z" transform="translate(-28.66 -6)" fill="#302545"/><path d="M179.37,744a1.61,1.61,0,0,1-1.34-.71c-14.13-20.91,1-87.44,11-119.71a1.61,1.61,0,0,1,3.08,1c-11.42,36.9-23.88,98.49-11.41,117a1.61,1.61,0,0,1-1.33,2.51Z" transform="translate(-28.66 -6)" fill="#302545"/><circle cx="200.49" cy="287.09" r="8.46" fill="#fff"/><circle cx="484.53" cy="287.09" r="8.46" fill="#fff"/><path d="M375.63,348.24a177.21,177.21,0,0,1-35.79-3.67,2.68,2.68,0,0,1,1.19-5.23c.35.08,35.16,7.8,64.74,0a2.68,2.68,0,1,1,1.36,5.19A125.17,125.17,0,0,1,375.63,348.24Z" transform="translate(-28.66 -6)" fill="#db6356"/><path d="M374.2,372A43.73,43.73,0,0,1,361.43,370a2.68,2.68,0,0,1,1.7-5.09h0c.12,0,11.22,3.66,20.5,0a2.69,2.69,0,1,1,1.95,5A31.5,31.5,0,0,1,374.2,372Z" transform="translate(-28.66 -6)" fill="#db6356"/><path d="M235.5,102.48s1.69,28.5,69.41,73,95.26,39.26,95.26,39.26c-13.89-9.51-20.2-19-32.66-47.08,30.35,35,79,59.08,125.73,59.08l-.07-135L388,61.5Z" transform="translate(-28.66 -6)" fill="#6b2253"/><path d="M246.83,227.79c24.32-15.84,43-52.48,56.64-107.89L262.88,64.45,236,114.86Z" transform="translate(-28.66 -6)" fill="#6b2253"/><path d="M289.42,477.89a5.38,5.38,0,0,1-5.29-4.49l-.08-.53a5.37,5.37,0,1,1,10.59-1.76l.09.53a5.41,5.41,0,0,1-5.31,6.25Z" transform="translate(-28.66 -6)" fill="#fff"/><path d="M385.29,584.63a5.37,5.37,0,0,1-1-10.64l1-.19a5.37,5.37,0,0,1,2.19,10.51l-1.16.23A5.83,5.83,0,0,1,385.29,584.63Zm-21.73,0a6.09,6.09,0,0,1-1-.1l-1.18-.24a5.37,5.37,0,1,1,2.26-10.5l1,.2a5.37,5.37,0,0,1-1,10.64Zm43-8.27a5.37,5.37,0,0,1-2.79-10l.86-.54a5.37,5.37,0,0,1,5.71,9.1l-1,.61A5.33,5.33,0,0,1,406.57,576.32Zm-64.24-.19a5.42,5.42,0,0,1-2.83-.8c-.33-.21-.66-.41-1-.63a5.36,5.36,0,0,1,5.78-9l.86.54a5.37,5.37,0,0,1-2.83,9.93Zm81.85-14.43a5.37,5.37,0,0,1-3.94-9l.7-.76a5.37,5.37,0,1,1,8,7.19l-.78.85A5.33,5.33,0,0,1,424.18,561.7Zm-99.35-.32a5.36,5.36,0,0,1-4-1.77c-.25-.28-.51-.56-.76-.85a5.37,5.37,0,1,1,8-7.13l.7.77a5.38,5.38,0,0,1-4,9Zm112.93-18.16a5.37,5.37,0,0,1-4.63-8.09l.54-.91A5.37,5.37,0,1,1,443,539.6l-.57,1A5.36,5.36,0,0,1,437.76,543.22Zm-126.42-.38a5.37,5.37,0,0,1-4.64-2.64l-.57-1a5.37,5.37,0,1,1,9.3-5.36l.53.9a5.37,5.37,0,0,1-4.62,8.09Zm136.34-20.31a5.27,5.27,0,0,1-1.93-.36,5.37,5.37,0,0,1-3.08-6.94l.39-1a5.37,5.37,0,1,1,10,3.82l-.4,1A5.35,5.35,0,0,1,447.68,522.53Zm-146.35-.34a5.35,5.35,0,0,1-5-3.39l-.42-1a5.37,5.37,0,0,1,10-3.91l.39,1a5.38,5.38,0,0,1-3,7A5.52,5.52,0,0,1,301.33,522.19ZM454.5,500.61a5.16,5.16,0,0,1-1.28-.16,5.36,5.36,0,0,1-3.94-6.48l.25-1A5.37,5.37,0,1,1,460,495.42l-.26,1.09A5.37,5.37,0,0,1,454.5,500.61Zm-160.3-.25a5.38,5.38,0,0,1-5.19-4l-.29-1.1a5.37,5.37,0,0,1,10.4-2.68l.27,1a5.37,5.37,0,0,1-3.82,6.56A5.43,5.43,0,0,1,294.2,500.36Z" transform="translate(-28.66 -6)" fill="#fff"/><path d="M458.71,477.89a5.58,5.58,0,0,1-.7,0,5.37,5.37,0,0,1-4.63-6l.07-.53a5.36,5.36,0,1,1,10.64,1.38l-.06.53A5.37,5.37,0,0,1,458.71,477.89Z" transform="translate(-28.66 -6)" fill="#fff"/></svg>