<svg xmlns="http://www.w3.org/2000/svg" viewBox="0 0 670.42 734"><circle cx="335.21" cy="357.3" r="335.21" fill="#def9f4"/><path d="M634.49,402.79h0a59.67,59.67,0,0,0-18.07-42.74,26.58,26.58,0,0,1-6.07-28.58A57.46,57.46,0,0,0,595.69,269a27,27,0,0,1-4.35-5.22,18,18,0,0,1,.23-19.6,50.68,50.68,0,0,0,8.6-28.28h0a51.19,51.19,0,0,0-22.75-42.47,18.43,18.43,0,0,1-8.09-16v-.11c.89-30.38-20.54-44.68-37.83-51.22A32.94,32.94,0,0,1,510.36,80c-2.67-19-14.09-44.37-55.59-46a46.67,46.67,0,0,0-11.07.9,32.21,32.21,0,0,1-29.62-9.48,56.49,56.49,0,0,0-81.7.12,33.35,33.35,0,0,1-31.86,9.57A42.91,42.91,0,0,0,287.72,34c-39,2.6-51,28.21-54.53,47a33.09,33.09,0,0,1-20.54,24.9c-16.6,6.44-38,20.71-39.49,51.44,0,.51,0,1,0,1.54a17.85,17.85,0,0,1-8,14.49,51.2,51.2,0,0,0-22.8,42.51h0a50.66,50.66,0,0,0,8.62,28.3,18.31,18.31,0,0,1-.22,20.47,27.75,27.75,0,0,1-3.82,4.45,57.41,57.41,0,0,0-14.55,62.33,26.4,26.4,0,0,1-6.09,28.45A59.69,59.69,0,0,0,108,402.79h0a59.64,59.64,0,0,0,16.81,41.47,26,26,0,0,1,4.89,28.68A56.52,56.52,0,0,0,205,547.5H537.56a55.91,55.91,0,0,0,21.37,5.22A56.51,56.51,0,0,0,612.84,473a26.06,26.06,0,0,1,4.85-28.78A59.63,59.63,0,0,0,634.49,402.79ZM287.72,147a56.53,56.53,0,0,0,52.84-36.44,56.5,56.5,0,0,0,62.23,2.14,56.52,56.52,0,0,0,52,34.3c.84,0,1.66,0,2.49-.06a57,57,0,0,0-1,10.36,56.38,56.38,0,0,0,.5,7.39H285.71a56.39,56.39,0,0,0,.49-7.39,57,57,0,0,0-1-10.36C286.06,147,286.89,147,287.72,147Z" transform="translate(-39.79 -8)" fill="#53241b"/><ellipse cx="333.7" cy="214.96" rx="161.74" ry="173.81" fill="#53241b"/><path d="M480.06,235.07s26.63-17.93,45.58,4.61-5.12,75.28-45.58,74.26-32.78-42.81-32.78-42.81Z" transform="translate(-39.79 -8)" fill="#d1846f"/><path d="M480,283a2.43,2.43,0,0,1-.75-.11,2.59,2.59,0,0,1-1.74-3.23,59.15,59.15,0,0,1,7.29-14.81c6.83-10,15.73-15.8,25.72-16.65a2.6,2.6,0,0,1,.44,5.18c-20.41,1.72-28.39,27.51-28.47,27.77A2.59,2.59,0,0,1,480,283Z" transform="translate(-39.79 -8)" fill="#db6356"/><path d="M510.14,269.75a2.7,2.7,0,0,1-1.17-.27c-6.23-3.13-13.31-3.49-21-1.07a2.6,2.6,0,0,1-1.55-5c9-2.83,17.42-2.37,24.9,1.38a2.6,2.6,0,0,1-1.16,4.92Z" transform="translate(-39.79 -8)" fill="#db6356"/><path d="M262.66,235.07s-26.63-17.93-45.58,4.61,5.12,75.28,45.58,74.26,32.77-42.81,32.77-42.81Z" transform="translate(-39.79 -8)" fill="#d1846f"/><path d="M264.86,283a2.58,2.58,0,0,1-2.48-1.85c-.11-.36-8.1-26-28.47-27.77a2.6,2.6,0,0,1,.44-5.18c10,.85,18.88,6.6,25.72,16.65a58.91,58.91,0,0,1,7.28,14.81,2.6,2.6,0,0,1-1.74,3.24A2.76,2.76,0,0,1,264.86,283Z" transform="translate(-39.79 -8)" fill="#db6356"/><path d="M234.72,269.75a2.6,2.6,0,0,1-1.17-4.92c7.49-3.75,15.86-4.21,24.9-1.38a2.6,2.6,0,1,1-1.55,5c-7.71-2.42-14.78-2.06-21,1.07A2.66,2.66,0,0,1,234.72,269.75Z" transform="translate(-39.79 -8)" fill="#db6356"/><path d="M503.14,378.42a43.54,43.54,0,0,1-37.93-64.94,3.12,3.12,0,0,1,5.43,3.07,37.22,37.22,0,1,0,25.13-18.23,3.12,3.12,0,0,1-1.23-6.11,43.53,43.53,0,1,1,8.6,86.21Z" transform="translate(-39.79 -8)" fill="#fff"/><path d="M241.89,378.42A43.53,43.53,0,0,1,234.7,292a43.14,43.14,0,0,1,15.78.24,3.12,3.12,0,0,1-1.23,6.11,37.23,37.23,0,1,0,25.14,18.23,3.12,3.12,0,1,1,5.43-3.07,43.57,43.57,0,0,1-37.93,64.94Z" transform="translate(-39.79 -8)" fill="#fff"/><path d="M658.64,739.86H91.36s1.51-177.94,40.53-211.15C151.5,512,191.79,498.83,234,488.91c25.8-6.06,52.33-10.89,75.31-14.56,37.55-6,65.64-8.88,65.64-8.88s28.13,2.5,65.77,8.22c23,3.5,49.54,8.2,75.41,14.28,41.63,9.78,81.49,23.13,101.94,40.74C656.93,562.14,658.64,739.86,658.64,739.86Z" transform="translate(-39.79 -8)" fill="#f27656"/><path d="M194.07,742a1.54,1.54,0,0,1-1.29-.69c-13.68-20.23,1-84.63,10.65-115.86a1.56,1.56,0,0,1,3,.93c-11.06,35.71-23.12,95.33-11,113.19a1.55,1.55,0,0,1-.41,2.16A1.59,1.59,0,0,1,194.07,742Z" transform="translate(-39.79 -8)" fill="#302545"/><path d="M572.76,742a1.56,1.56,0,0,1-1.29-2.43c12.08-17.86,0-77.48-11-113.19a1.56,1.56,0,0,1,3-.93c9.66,31.23,24.33,95.63,10.65,115.86A1.56,1.56,0,0,1,572.76,742Z" transform="translate(-39.79 -8)" fill="#302545"/><path d="M440.76,473.69q-1.86,65.54-4.06,142-1.86,64.34-4.06,124.14H317.47q-2.18-59.8-4.05-124.14-2.21-76.17-4.07-141.37c37.55-6,65.64-8.88,65.64-8.88S403.12,468,440.76,473.69Z" transform="translate(-39.79 -8)" fill="#2b296c"/><path d="M440.13,492c-25.58,95.65-110.17,83.14-130.26,0l3.67-32.5,11-97.48.05-.47H426.33l7.13,67.37Z" transform="translate(-39.79 -8)" fill="#dd927a"/><path d="M433.46,428.94s-15,24.09-65.76,31.19a188.07,188.07,0,0,1-54.16-.61l11-97.48,101.78-.47Z" transform="translate(-39.79 -8)" fill="#c16c56"/><path d="M467,120.52H275.57s-31.9,154.94-7.26,232.19c17.16,53.79,74.57,86.09,103.42,86.09,32.79,0,85.39-32.3,102.55-86.09C498.92,275.46,467,120.52,467,120.52Z" transform="translate(-39.79 -8)" fill="#dd927a"/><ellipse cx="278.84" cy="249.91" rx="9.22" ry="11.17" fill="#302545"/><ellipse cx="384.16" cy="249.91" rx="9.22" ry="11.17" fill="#302545"/><path d="M373.45,327.11a17.05,17.05,0,0,1-12.49-5c-2.72-2.85-8-11.06,1.15-25.64,6.65-10.56,5.93-27.12,5.92-27.29a2.6,2.6,0,1,1,5.19-.25c0,.74.82,18.34-6.72,30.31-5.09,8.09-5.74,15.12-1.78,19.29,3.79,4,11.11,4.46,17,1.13a2.6,2.6,0,1,1,2.55,4.53A22.32,22.32,0,0,1,373.45,327.11Z" transform="translate(-39.79 -8)" fill="#9b473e"/><path d="M300.08,229.08c-1.16.48-2-.73-1.62-2,4.57-15.37,26.56-20.55,34.82-12.64,7.72,7.38-8.77,6.22-21.24,10.25C306.26,226.55,302.4,228.12,300.08,229.08Z" transform="translate(-39.79 -8)" fill="#53241b"/><path d="M442.51,229.08c1.16.48,2-.73,1.63-2-4.58-15.37-26.57-20.55-34.83-12.64-7.72,7.38,8.77,6.22,21.24,10.25C436.33,226.55,440.19,228.12,442.51,229.08Z" transform="translate(-39.79 -8)" fill="#53241b"/><ellipse cx="260.23" cy="283.15" rx="21.49" ry="8.34" fill="#f7816d"/><ellipse cx="406.71" cy="283.15" rx="21.49" ry="8.34" fill="#f7816d"/><path d="M335.26,342.48a289.82,289.82,0,0,1,79.48,0C415,351.54,401,371.7,375,371.7,356.29,371.7,336.25,359.6,335.26,342.48Z" transform="translate(-39.79 -8)" fill="#992828"/><path d="M375,351.3a43.44,43.44,0,0,0-28.87,10.44,47.23,47.23,0,0,0,28.87,10,43.42,43.42,0,0,0,28.87-10.44A47.23,47.23,0,0,0,375,351.3Z" transform="translate(-39.79 -8)" fill="#e05c5c"/><path d="M374.61,397a92,92,0,0,1-18.47-1.89,2.6,2.6,0,0,1,1.15-5.07c.18,0,17.59,3.9,32.32,0a2.6,2.6,0,1,1,1.32,5A65.08,65.08,0,0,1,374.61,397Z" transform="translate(-39.79 -8)" fill="#9b473e"/><path d="M508.75,167.47a37.81,37.81,0,0,0-26.82-36.18l-.41-26.78-68.33-2.3a51.31,51.31,0,0,0-21.31-.72l-17.41-.59v-.22l-3.22.11-3.22-.11v.22l-14.24.48a51.42,51.42,0,0,0-20.07.68L261,104.51l-.44,28.15a37.81,37.81,0,0,0-1.07,69.13l-.5,32.46c6.52-6.47,12.08-16.81,16.16-29h.19a37.8,37.8,0,0,0,37.8-37.8c0-.89,0-1.77-.1-2.64,9.69,2.2,21.62,1,33.24-4,12.67-5.51,22.21-14.41,26.87-23.87,4.66,9.46,14.21,18.36,26.87,23.87,11.63,5.05,23.56,6.22,33.25,4-.06.87-.11,1.75-.11,2.64a37.8,37.8,0,0,0,34.17,37.62c4.08,12.25,9.67,22.66,16.22,29.16l-.48-31A37.8,37.8,0,0,0,508.75,167.47Z" transform="translate(-39.79 -8)" fill="#53241b"/></svg>