<svg xmlns="http://www.w3.org/2000/svg" viewBox="0 0 700.99 734"><circle cx="354.19" cy="356.97" r="346.8" fill="#def9f4"/><path d="M23.67,377.69c3.46,0,3.46-5.38,0-5.38s-3.47,5.38,0,5.38Z" transform="translate(-21.07 -8)" fill="#c68067"/><path d="M232.42,469.81h274.2a61.53,61.53,0,0,0,61.3-67.45c-13.1-132.45.38-236.92-38.37-302.89-9.75-16.59-25.71-28.58-44.72-36.94-8.48-18.53-20.52-34-37.6-40-95.37-33.47-223-14.87-266,119.15-16.76,52.22-7.52,156.75-10.31,264.9A61.62,61.62,0,0,0,232.42,469.81Z" transform="translate(-21.07 -8)" fill="#3d2031"/><path d="M668.71,740.39H81.8s4.92-155.95,41.94-193.89c18.47-18.92,56.89-36,98.26-50.07l.27-.08c72.07-24.51,153-39.85,153-39.85s80.41,16.84,153.11,42.07l.18.07c40,13.88,77.62,30.31,98.23,47.86C667.13,580.87,668.71,740.39,668.71,740.39Z" transform="translate(-21.07 -8)" fill="#759594"/><path d="M493.65,227.5s27.56-18.54,47.16,4.77-5.3,77.89-47.16,76.83-33.91-44.29-33.91-44.29Z" transform="translate(-21.07 -8)" fill="#f7907c"/><path d="M493.58,277.07a2.61,2.61,0,0,1-.77-.11,2.68,2.68,0,0,1-1.8-3.34,61.26,61.26,0,0,1,7.54-15.33c7.07-10.39,16.27-16.35,26.61-17.22a2.69,2.69,0,0,1,.45,5.36c-21.11,1.78-29.37,28.46-29.45,28.73A2.69,2.69,0,0,1,493.58,277.07Z" transform="translate(-21.07 -8)" fill="#db6356"/><path d="M524.77,263.38a2.74,2.74,0,0,1-1.2-.28c-6.45-3.23-13.77-3.6-21.75-1.11a2.69,2.69,0,0,1-1.6-5.13c9.35-2.92,18-2.44,25.76,1.43a2.69,2.69,0,0,1-1.21,5.09Z" transform="translate(-21.07 -8)" fill="#db6356"/><path d="M249.19,227.5S221.64,209,202,232.27s5.3,77.89,47.15,76.83,33.91-44.29,33.91-44.29Z" transform="translate(-21.07 -8)" fill="#f7907c"/><path d="M251.48,277.08a2.7,2.7,0,0,1-2.58-1.92c-.11-.37-8.38-27-29.45-28.73a2.69,2.69,0,0,1,.45-5.36c10.34.87,19.54,6.83,26.62,17.22a61.43,61.43,0,0,1,7.53,15.33,2.68,2.68,0,0,1-1.8,3.34A2.63,2.63,0,0,1,251.48,277.08Z" transform="translate(-21.07 -8)" fill="#db6356"/><path d="M220.29,263.38a2.69,2.69,0,0,1-1.21-5.09c7.74-3.87,16.41-4.35,25.76-1.43a2.69,2.69,0,1,1-1.6,5.13c-8-2.49-15.3-2.12-21.75,1.11A2.74,2.74,0,0,1,220.29,263.38Z" transform="translate(-21.07 -8)" fill="#db6356"/><path d="M434,487.4c-26.47,99-96.78,86-117.56,0l6.58-134.46.05-.5H428.36Z" transform="translate(-21.07 -8)" fill="#ffab94"/><path d="M367.71,454.41c37.63-5.26,56.26-19.55,63.79-27.22l-3.14-74.75-105.3.5-5,101.72A192,192,0,0,0,367.71,454.41Z" transform="translate(-21.07 -8)" fill="#dd726c"/><path d="M475.54,103.05H267.31s-34.68,160.31-7.89,240.22c18.67,55.66,81.1,89.08,112.48,89.08,35.65,0,92.86-33.42,111.52-89.08C510.22,263.36,475.54,103.05,475.54,103.05Z" transform="translate(-21.07 -8)" fill="#ffab94"/><ellipse cx="295.87" cy="235.22" rx="9.54" ry="13.54" fill="#302545"/><ellipse cx="404.83" cy="235.22" rx="9.54" ry="13.54" fill="#302545"/><path d="M373.66,311a17.67,17.67,0,0,1-12.93-5.14c-2.81-2.95-8.31-11.44,1.19-26.53,6.88-10.93,6.13-28.06,6.12-28.23a2.69,2.69,0,0,1,5.37-.27c0,.77.85,19-6.94,31.37-5.28,8.37-6,15.64-1.85,20,3.92,4.12,11.5,4.62,17.63,1.17a2.69,2.69,0,0,1,2.64,4.69A23.06,23.06,0,0,1,373.66,311Z" transform="translate(-21.07 -8)" fill="#db6356"/><path d="M297.74,215.38c-1.19.49-2.06-.76-1.67-2.07,4.73-15.9,27.48-21.27,36-13.08,8,7.64-9.08,6.44-22,10.6C304.14,212.76,300.15,214.39,297.74,215.38Z" transform="translate(-21.07 -8)" fill="#302545"/><path d="M445.1,215.38c1.2.49,2.07-.76,1.68-2.07-4.73-15.9-27.48-21.27-36-13.08-8,7.64,9.08,6.44,22,10.6C438.71,212.76,442.7,214.39,445.1,215.38Z" transform="translate(-21.07 -8)" fill="#302545"/><ellipse cx="276.61" cy="271.59" rx="22.24" ry="8.63" fill="#f7816d"/><ellipse cx="428.16" cy="271.59" rx="22.24" ry="8.63" fill="#f7816d"/><path d="M179.38,742a1.63,1.63,0,0,1-1.34-.71c-14.15-20.94,1-87.56,11-119.87a1.61,1.61,0,1,1,3.08,1c-11.43,37-23.92,98.62-11.42,117.1a1.62,1.62,0,0,1-.44,2.24A1.57,1.57,0,0,1,179.38,742Z" transform="translate(-21.07 -8)" fill="#302545"/><path d="M571.17,742a1.57,1.57,0,0,1-.9-.28,1.61,1.61,0,0,1-.44-2.24c12.49-18.48,0-80.15-11.42-117.1a1.61,1.61,0,0,1,3.08-1c10,32.31,25.17,98.93,11,119.87A1.63,1.63,0,0,1,571.17,742Z" transform="translate(-21.07 -8)" fill="#302545"/><circle cx="208.14" cy="285.92" r="8.48" fill="#fff"/><circle cx="492.56" cy="285.92" r="8.48" fill="#fff"/><path d="M374.86,389.1a94.3,94.3,0,0,1-19.11-2,2.69,2.69,0,1,1,1.19-5.24c.18,0,18.2,4,33.43,0a2.69,2.69,0,1,1,1.37,5.2A66.88,66.88,0,0,1,374.86,389.1Z" transform="translate(-21.07 -8)" fill="#db6356"/><path d="M414.14,328.13c.19,6.87-5,18.87-15,27.22a39.06,39.06,0,0,1-25.42,9.31,42.38,42.38,0,0,1-25.4-9c-8.45-6.49-14.51-16.13-15.05-27.56C359.57,333.45,386.64,333.16,414.14,328.13Z" transform="translate(-21.07 -8)" fill="#992828"/><path d="M399.12,355.35a39.06,39.06,0,0,1-25.42,9.31,42.38,42.38,0,0,1-25.4-9,39.1,39.1,0,0,1,25.4-9.29A42.45,42.45,0,0,1,399.12,355.35Z" transform="translate(-21.07 -8)" fill="#e05c5c"/><path d="M528.37,498.57c-.62,32-3,63.5-6.59,94.57C519,616.69,504,635.8,484,641q-108.67,27.94-217.33.22c-20.24-5.19-35.43-24.71-37.88-48.61-3.3-32.29-5.7-64.37-6.51-96.21,72.07-24.51,153-39.85,153-39.85S455.67,473.34,528.37,498.57Z" transform="translate(-21.07 -8)" fill="#ffab94"/><path d="M249.64,243.22s18.24-26.15,25.81-64.47L283,140.43l-31.54,25.73Z" transform="translate(-21.07 -8)" fill="#3d2031"/><path d="M493.19,243.22S475,217.07,467.38,178.75l-7.57-38.32,31.54,25.73Z" transform="translate(-21.07 -8)" fill="#3d2031"/><path d="M375.32,573.16c-18.41,0-39.12-10.69-55.39-28.59a112,112,0,0,1-29.13-69.18,2.69,2.69,0,0,1,2.54-2.83,2.72,2.72,0,0,1,2.83,2.55c2.72,52.19,44.78,92.67,79.15,92.67,41.55,0,76.3-40.09,79.12-91.28a2.68,2.68,0,1,1,5.36.3C456.83,530.83,419.72,573.16,375.32,573.16Z" transform="translate(-21.07 -8)" fill="#ef7c2e"/><path d="M249.26,83.06V206c13-4.43,19.42-8.19,32.24-11.27l14.33-50.18L300.15,192a369,369,0,0,1,52-7.11l10.55-44.43,6,43.78a335.6,335.6,0,0,1,46,2.4l6-51,7.2,52.84A342.86,342.86,0,0,1,493.58,206V83.06Z" transform="translate(-21.07 -8)" fill="#3d2031"/></svg>