<svg xmlns="http://www.w3.org/2000/svg" viewBox="0 0 662 743.96"><circle cx="331" cy="362.4" r="331" fill="#def9f4"/><path d="M650.54,744.92H99.46s1.47-157.55,39.36-187c26.67-20.67,92.67-35.29,148.15-44.38,6.71-1.09,13.26-2.11,19.57-3.05C345.35,504.73,375,502,375,502s29.63,2.39,68.48,7.93c6.33.9,12.91,1.88,19.64,3C518,521.57,583.24,536,611.18,558,648.88,587.56,650.54,744.92,650.54,744.92Z" transform="translate(-44 -3.02)" fill="#302545"/><path d="M463.12,512.85,420.46,744.92H329.53L287,513.58c6.71-1.09,13.26-2.11,19.57-3.05C345.35,504.73,375,502,375,502s29.63,2.39,68.48,7.93C449.81,510.8,456.39,511.78,463.12,512.85Z" transform="translate(-44 -3.02)" fill="#ffab94"/><path d="M463.12,512.85,420.46,744.92H329.53L287,513.58c6.71-1.09,13.26-2.11,19.57-3.05C345.35,504.73,375,502,375,502s29.63,2.39,68.48,7.93C449.81,510.8,456.39,511.78,463.12,512.85Z" transform="translate(-44 -3.02)" fill="#ffab94"/><circle cx="331.22" cy="81.79" r="81.79" fill="#932115"/><path d="M293.59,80c-.1,1.6-.16,3.22-.16,4.85a81.79,81.79,0,0,0,163.58,0c0-1.54-.06-3.06-.14-4.58C435.25,67,406.52,59,375,59,343.7,59,315.16,66.92,293.59,80Z" transform="translate(-44 -3.02)" fill="#ffac33"/><path d="M534,235.81c0,94.85-72.06,180.38-160.95,180.38s-161-85.53-161-180.38S284.15,74,373.05,74,534,141,534,235.81Z" transform="translate(-44 -3.02)" fill="#932115"/><path d="M486.17,289.32s25.87-17.41,44.28,4.48-5,73.14-44.28,72.14-31.84-41.58-31.84-41.58Z" transform="translate(-44 -3.02)" fill="#f7907c"/><path d="M486.11,335.91a2.69,2.69,0,0,1-.74-.1,2.57,2.57,0,0,1-1.72-3.2,57.54,57.54,0,0,1,7.08-14.4c6.65-9.77,15.3-15.37,25-16.19a2.57,2.57,0,0,1,.43,5.12c-19.85,1.67-27.54,26.69-27.62,26.94A2.56,2.56,0,0,1,486.11,335.91Z" transform="translate(-44 -3.02)" fill="#db6356"/><path d="M515.39,323.06a2.58,2.58,0,0,1-1.14-.27c-6.05-3-12.91-3.38-20.4-1a2.57,2.57,0,0,1-1.53-4.9c8.8-2.75,16.95-2.3,24.22,1.35a2.56,2.56,0,0,1-1.15,4.86Z" transform="translate(-44 -3.02)" fill="#db6356"/><path d="M256.63,289.32s-25.87-17.41-44.28,4.48,5,73.14,44.28,72.14,31.84-41.58,31.84-41.58Z" transform="translate(-44 -3.02)" fill="#f7907c"/><path d="M258.78,335.91a2.56,2.56,0,0,1-2.46-1.83c-.1-.32-7.85-25.27-27.62-26.94a2.57,2.57,0,0,1,.43-5.12c9.72.82,18.37,6.42,25,16.19a57.14,57.14,0,0,1,7.08,14.4,2.57,2.57,0,0,1-1.72,3.2A2.62,2.62,0,0,1,258.78,335.91Z" transform="translate(-44 -3.02)" fill="#db6356"/><path d="M229.49,323.06a2.56,2.56,0,0,1-1.15-4.86c7.28-3.64,15.43-4.1,24.22-1.35a2.57,2.57,0,0,1-1.53,4.9c-7.48-2.34-14.34-2-20.39,1A2.62,2.62,0,0,1,229.49,323.06Z" transform="translate(-44 -3.02)" fill="#db6356"/><path d="M438.28,533.36c-24.86,92.93-107,80.77-126.55,0L313.58,517l1.71-15.16L326,407.1l.05-.46h98.82l6.93,65.45,3.14,29.7,1.55,14.58Z" transform="translate(-44 -3.02)" fill="#ffab94"/><path d="M431.06,465.2c-14,16.47-56.06,44.22-114.25,23.19L326,407.1l98.87-.46Z" transform="translate(-44 -3.02)" fill="#dd726c"/><path d="M268.86,197.67c-8,46.06-21.43,144.28-2.62,200.36,17.52,52.26,76.15,83.64,105.61,83.64,33.48,0,87.19-31.38,104.72-83.64,18.8-56.08,5.36-154.3-2.63-200.36Z" transform="translate(-44 -3.02)" fill="#ffab94"/><ellipse cx="276.25" cy="301.07" rx="8.96" ry="9.81" fill="#302545"/><ellipse cx="378.56" cy="301.07" rx="8.96" ry="9.81" fill="#302545"/><path d="M373.5,367.72a16.61,16.61,0,0,1-12.17-4.84c-2.64-2.78-7.83-10.77,1.11-25,6.46-10.25,5.75-26.32,5.75-26.48a2.56,2.56,0,1,1,5.12-.26c0,.73.8,17.84-6.53,29.47-4.94,7.85-5.57,14.66-1.74,18.69,3.67,3.85,10.77,4.32,16.51,1.09a2.57,2.57,0,0,1,2.51,4.48A21.65,21.65,0,0,1,373.5,367.72Z" transform="translate(-44 -3.02)" fill="#db6356"/><path d="M302.22,277.94c-1.12.46-1.94-.72-1.58-1.94,4.45-14.93,25.81-20,33.84-12.29,7.49,7.18-8.53,6.05-20.64,10C308.22,275.48,304.48,277,302.22,277.94Z" transform="translate(-44 -3.02)" fill="#932115"/><path d="M440.58,277.94c1.13.46,1.95-.72,1.58-1.94-4.45-14.93-25.81-20-33.83-12.29-7.5,7.18,8.52,6.05,20.63,10C434.58,275.48,438.33,277,440.58,277.94Z" transform="translate(-44 -3.02)" fill="#932115"/><ellipse cx="258.16" cy="335.22" rx="20.88" ry="8.1" fill="#f7816d"/><ellipse cx="400.46" cy="335.22" rx="20.88" ry="8.1" fill="#f7816d"/><path d="M192.14,747a1.54,1.54,0,0,1-1.22-.6c-13.83-18,.94-75.15,10.68-102.85a1.54,1.54,0,0,1,2.9,1c-11.1,31.56-23.22,84.22-11.14,100a1.54,1.54,0,0,1-.28,2.16A1.51,1.51,0,0,1,192.14,747Z" transform="translate(-44 -3.02)" fill="#302545"/><path d="M557.88,747a1.51,1.51,0,0,1-.94-.32,1.54,1.54,0,0,1-.28-2.16c12.08-15.73,0-68.39-11.14-100a1.54,1.54,0,0,1,2.9-1c9.74,27.7,24.51,84.84,10.68,102.85A1.54,1.54,0,0,1,557.88,747Z" transform="translate(-44 -3.02)" fill="#302545"/><path d="M412.53,385.67a22.67,22.67,0,0,1-1.59,8.1,43.48,43.48,0,0,1-12.75,17.9,37.34,37.34,0,0,1-24.26,8.87A40.43,40.43,0,0,1,349.68,412a36.68,36.68,0,0,1-12.95-18.21,32.63,32.63,0,0,1-1.4-8.1C358.69,385.64,384.43,385.71,412.53,385.67Z" transform="translate(-44 -3.02)" fill="#992828"/><path d="M398.2,411.66a37.33,37.33,0,0,1-24.27,8.89A40.48,40.48,0,0,1,349.68,412a37.32,37.32,0,0,1,24.25-8.88A40.56,40.56,0,0,1,398.2,411.66Z" transform="translate(-44 -3.02)" fill="#e05c5c"/><circle cx="193.87" cy="348.67" r="7.96" fill="#fff"/><circle cx="460.93" cy="348.67" r="7.96" fill="#fff"/><path d="M374.13,436.39a88.91,88.91,0,0,1-17.95-1.84,2.57,2.57,0,0,1,1.14-5c.16,0,17.08,3.79,31.37,0a2.57,2.57,0,0,1,1.31,5A63.42,63.42,0,0,1,374.13,436.39Z" transform="translate(-44 -3.02)" fill="#db6356"/><path d="M300,521a4.75,4.75,0,0,1-4.69-4l-.08-.47a4.76,4.76,0,1,1,9.39-1.57l.08.47a4.76,4.76,0,0,1-3.91,5.48A4.29,4.29,0,0,1,300,521Z" transform="translate(-44 -3.02)" fill="#fff"/><path d="M385,615.67a4.76,4.76,0,0,1-.88-9.44l.87-.17a4.76,4.76,0,0,1,1.94,9.32l-1,.2A4.58,4.58,0,0,1,385,615.67Zm-19.26,0a4.78,4.78,0,0,1-.92-.09l-1-.22a4.76,4.76,0,1,1,2-9.31l.85.18a4.76,4.76,0,0,1-.89,9.44Zm38.14-7.34a4.76,4.76,0,0,1-2.48-8.83l.77-.47a4.76,4.76,0,1,1,5.06,8.06l-.88.55A4.74,4.74,0,0,1,403.88,608.29Zm-57-.16a4.7,4.7,0,0,1-2.51-.72l-.87-.55a4.76,4.76,0,1,1,5.13-8l.76.48a4.76,4.76,0,0,1-2.51,8.81Zm72.59-12.8a4.77,4.77,0,0,1-3.5-8l.63-.68a4.76,4.76,0,0,1,7.06,6.38l-.68.76A4.78,4.78,0,0,1,419.5,595.33ZM331.39,595a4.77,4.77,0,0,1-3.53-1.56l-.68-.76a4.76,4.76,0,0,1,7.12-6.33l.62.69a4.76,4.76,0,0,1-3.53,8Zm100.15-16.1a4.76,4.76,0,0,1-4.1-7.17l.47-.81a4.76,4.76,0,1,1,8.24,4.77l-.5.87A4.78,4.78,0,0,1,431.54,578.94Zm-112.12-.34a4.78,4.78,0,0,1-4.11-2.34l-.51-.88a4.76,4.76,0,1,1,8.25-4.75l.47.8a4.76,4.76,0,0,1-4.1,7.17Zm120.92-18a4.67,4.67,0,0,1-1.71-.32,4.77,4.77,0,0,1-2.73-6.16l.34-.88a4.76,4.76,0,0,1,8.9,3.38l-.35.93A4.77,4.77,0,0,1,440.34,560.59Zm-129.79-.3a4.76,4.76,0,0,1-4.43-3l-.37-.93a4.76,4.76,0,1,1,8.87-3.46l.35.87A4.76,4.76,0,0,1,312.3,560,4.69,4.69,0,0,1,310.55,560.29Zm135.84-19.14a4.86,4.86,0,0,1-1.13-.14,4.76,4.76,0,0,1-3.5-5.75l.22-.92a4.76,4.76,0,0,1,9.26,2.2l-.23,1A4.76,4.76,0,0,1,446.39,541.15Zm-142.17-.22a4.77,4.77,0,0,1-4.6-3.54l-.25-1a4.76,4.76,0,0,1,9.22-2.37l.24.91a4.77,4.77,0,0,1-3.39,5.82A4.7,4.7,0,0,1,304.22,540.93Z" transform="translate(-44 -3.02)" fill="#fff"/><path d="M450.12,521a4.4,4.4,0,0,1-.62,0,4.77,4.77,0,0,1-4.11-5.33l.07-.48a4.76,4.76,0,1,1,9.44,1.23l-.06.47A4.76,4.76,0,0,1,450.12,521Z" transform="translate(-44 -3.02)" fill="#fff"/><path d="M257.25,299.29C278.59,261,289,219.36,289,168c0,0-42.48,6-41.54,7.2S257.25,299.29,257.25,299.29Z" transform="translate(-44 -3.02)" fill="#932115"/><path d="M485.56,299.29C464.22,261,453.77,219.36,453.77,168c0,0,42.47,6,41.53,7.2S485.56,299.29,485.56,299.29Z" transform="translate(-44 -3.02)" fill="#932115"/><path d="M471.32,207.15c-27.76,20-64.87,31.48-107.54,37.93,11.22-7.52,22.7-18.64,25.79-30.38-16.52,19-85.42,32.84-110.12,30.38-22.37-2.23-22.47.64-22.47.64l20-81.58h98l78.83,11.14Z" transform="translate(-44 -3.02)" fill="#932115"/><path d="M487.87,265.43s21.83,29.24,17,62.62S476.75,375.2,482.69,398c6.73,25.79,13.59,32.16,9.68,52.41-3,15.7-17.91,27.12-24.43,26.9,9.33-5.61,17.48-21.23,16.11-35.16-2.12-21.54-22.71-37.2-16.11-64.14s13.89-27.77,18.15-53.09c2.54-15.07-6.2-36.63-6.2-36.63Z" transform="translate(-44 -3.02)" fill="#932115"/><path d="M254.93,265.43s-21.83,29.24-17,62.62S266.06,375.2,260.12,398c-6.73,25.79-13.59,32.16-9.69,52.41,3,15.7,17.92,27.12,24.43,26.9-9.33-5.61-17.48-21.23-16.11-35.16,2.12-21.54,22.71-37.2,16.11-64.14S261,350.21,256.71,324.89c-2.53-15.07,6.21-36.63,6.21-36.63Z" transform="translate(-44 -3.02)" fill="#932115"/><path d="M373.05,652.28a225.51,225.51,0,0,1-62.13-8.49l18.61,101.13h90.93l18.82-102.37A223.49,223.49,0,0,1,373.05,652.28Z" transform="translate(-44 -3.02)" fill="#f5eee9"/><path d="M412.53,385.67a22.67,22.67,0,0,1-1.59,8.1H336.73a32.63,32.63,0,0,1-1.4-8.1C358.69,385.64,384.43,385.71,412.53,385.67Z" transform="translate(-44 -3.02)" fill="#fff"/></svg>