<svg xmlns="http://www.w3.org/2000/svg" viewBox="0 0 673.54 734"><circle cx="336.77" cy="357.26" r="336.77" fill="#def9f4"/><path d="M554.33,531.1c31.76-22.69,50.12-69.05,48.3-93.71-3.38-46-43.06-74.56-40-113.54,2.78-34.8,40.08-46.34,29.6-106.3-8.48-48.58-49.91-46.41-49.91-84.26C542.37-13.26,387.28,2.44,341.07,17s-79.2,473.47-79.2,473.47Z" transform="translate(-38.23 -8)" fill="#3d2031"/><path d="M179.44,559c-52.3-52.2-52.6-81.88-50-110.21,4.17-44.61,44.51-57.85,47.56-96,4.09-51-39.32-58.1-31.08-121.16,5.73-43.81,40.79-58.67,54.22-99.49,14-42.69,43-148.6,244.71-104.75,55.16,12,56,132.77,56,132.77l-56,393.72Z" transform="translate(-38.23 -8)" fill="#3d2031"/><path d="M660,739.85H90s1.52-178.77,40.71-212.14C182.15,484,375,464.18,375,464.18s190,16.85,244.25,63.53C658.24,561.3,660,739.85,660,739.85Z" transform="translate(-38.23 -8)" fill="#7088ea"/><path d="M490,238.47s26.76-18,45.79,4.63-5.14,75.64-45.79,74.61-32.93-43-32.93-43Z" transform="translate(-38.23 -8)" fill="#f7907c"/><path d="M489.9,286.61a2.84,2.84,0,0,1-.75-.11,2.62,2.62,0,0,1-1.75-3.25,59.58,59.58,0,0,1,7.32-14.88c6.87-10.09,15.8-15.88,25.84-16.72a2.61,2.61,0,1,1,.44,5.2c-20.5,1.73-28.52,27.64-28.6,27.9A2.61,2.61,0,0,1,489.9,286.61Z" transform="translate(-38.23 -8)" fill="#db6356"/><path d="M520.19,273.32A2.61,2.61,0,0,1,519,273c-6.26-3.14-13.37-3.5-21.12-1.08a2.61,2.61,0,0,1-1.56-5c9.09-2.84,17.5-2.37,25,1.39a2.62,2.62,0,0,1-1.17,4.95Z" transform="translate(-38.23 -8)" fill="#db6356"/><path d="M252.58,238.47s-26.75-18-45.79,4.63,5.14,75.64,45.79,74.61,32.93-43,32.93-43Z" transform="translate(-38.23 -8)" fill="#f7907c"/><path d="M254.8,286.61a2.61,2.61,0,0,1-2.5-1.86c-.11-.36-8.14-26.17-28.6-27.9a2.61,2.61,0,0,1,.44-5.2c10,.84,19,6.63,25.84,16.72a59.58,59.58,0,0,1,7.32,14.88,2.61,2.61,0,0,1-1.75,3.25A2.78,2.78,0,0,1,254.8,286.61Z" transform="translate(-38.23 -8)" fill="#db6356"/><path d="M224.51,273.32a2.62,2.62,0,0,1-1.17-4.95c7.52-3.76,15.93-4.23,25-1.39a2.61,2.61,0,0,1-1.56,5c-7.75-2.42-14.85-2.06-21.12,1.08A2.58,2.58,0,0,1,224.51,273.32Z" transform="translate(-38.23 -8)" fill="#db6356"/><path d="M496.07,501.88c-5.69-14.09-58.42-42-58.42-42L375,521l-62.65-61.07s-52.73,27.9-58.42,42c-10.87,26.91,27.81,136.46,36.55,119.57,18.88-36.49,50.28-49.86,75-59a27.52,27.52,0,0,1,19.06,0c24.71,9.1,56.11,22.47,75,59C468.26,638.34,506.94,528.79,496.07,501.88Z" transform="translate(-38.23 -8)" fill="#fff7f5"/><path d="M440.43,490.85c-25.7,96.11-110.69,83.54-130.86,0l3.68-32.65,11.06-97.93.05-.47h102.2l7.17,67.68Z" transform="translate(-38.23 -8)" fill="#f7907c"/><path d="M433.73,427.48s-15.06,24.2-66.06,31.34a188.75,188.75,0,0,1-54.42-.62l11.06-97.93,102.25-.47Z" transform="translate(-38.23 -8)" fill="#bc5b51"/><path d="M472.38,117.62H270.18s-33.69,155.67-7.66,233.27c18.12,54.05,78.75,86.5,109.21,86.5,34.63,0,90.18-32.45,108.31-86.5C506.06,273.29,472.38,117.62,472.38,117.62Z" transform="translate(-38.23 -8)" fill="#fe9780"/><ellipse cx="280.14" cy="247.26" rx="9.26" ry="11.62" fill="#302545"/><ellipse cx="385.95" cy="247.26" rx="9.26" ry="11.62" fill="#302545"/><path d="M373.44,325.19a17.14,17.14,0,0,1-12.55-5c-2.73-2.86-8.07-11.11,1.16-25.76C368.73,283.82,368,267.19,368,267a2.61,2.61,0,0,1,5.22-.26c0,.75.82,18.44-6.75,30.45-5.12,8.14-5.77,15.2-1.79,19.38,3.8,4,11.16,4.49,17.12,1.14a2.61,2.61,0,0,1,2.56,4.55A22.39,22.39,0,0,1,373.44,325.19Z" transform="translate(-38.23 -8)" fill="#db6356"/><path d="M447,199.39c1.24.19,1.78-1.19,1.11-2.34-8.1-13.92-30.8-13.78-37-4.1-5.78,9,10,4,23.17,5C440.39,198.38,444.52,199,447,199.39Z" transform="translate(-38.23 -8)" fill="#302545"/><path d="M295.53,199.39c-1.24.19-1.78-1.19-1.11-2.34,8.11-13.92,30.8-13.78,37-4.1,5.78,9-10,4-23.16,5C302.17,198.38,298,199,295.53,199.39Z" transform="translate(-38.23 -8)" fill="#302545"/><path d="M489.59,249.76C452.18,198.54,459.08,89.5,459.08,89.5l35.85,9.62Z" transform="translate(-38.23 -8)" fill="#3d2031"/><path d="M237.26,168.33c104.87,67.9,212.66-12.45,250.88-58.65L416,64S251-55.25,185.7,55.79C165.87,89.5,204,146.78,237.26,168.33Z" transform="translate(-38.23 -8)" fill="#3d2031"/><ellipse cx="256.86" cy="304.47" rx="21.59" ry="8.38" fill="#f7816d"/><ellipse cx="413.65" cy="304.47" rx="21.59" ry="8.38" fill="#f7816d"/><path d="M184.77,742a1.57,1.57,0,0,1-1.3-.69c-13.74-20.33,1-85,10.7-116.4a1.57,1.57,0,0,1,3,.93c-11.1,35.88-23.22,95.77-11.09,113.72a1.57,1.57,0,0,1-1.3,2.44Z" transform="translate(-38.23 -8)" fill="#302545"/><path d="M565.23,742a1.57,1.57,0,0,1-1.3-2.44c12.13-17.95,0-77.84-11.1-113.72a1.57,1.57,0,0,1,3-.93c9.71,31.37,24.44,96.07,10.7,116.4A1.57,1.57,0,0,1,565.23,742Z" transform="translate(-38.23 -8)" fill="#302545"/><circle cx="194.95" cy="294.97" r="8.23" fill="#fff"/><circle cx="471.14" cy="294.97" r="8.23" fill="#fff"/><path d="M374.61,387.53a92.38,92.38,0,0,1-18.56-1.9,2.62,2.62,0,0,1,1.16-5.1c.17,0,17.67,3.92,32.47,0a2.61,2.61,0,0,1,1.33,5.05A65.31,65.31,0,0,1,374.61,387.53Z" transform="translate(-38.23 -8)" fill="#db6356"/><path d="M375.62,364.18a172.48,172.48,0,0,1-34.95-3.59,2.61,2.61,0,1,1,1.16-5.09c.34.08,34.34,7.63,63.23,0a2.61,2.61,0,0,1,1.33,5.05A122.1,122.1,0,0,1,375.62,364.18Z" transform="translate(-38.23 -8)" fill="#db6356"/><path d="M429.16,310.7a49.26,49.26,0,1,1,49.27-49.26A49.32,49.32,0,0,1,429.16,310.7Zm0-93.3a44,44,0,1,0,44,44A44.09,44.09,0,0,0,429.16,217.4Z" transform="translate(-38.23 -8)" fill="#302545"/><path d="M313.39,310.7a49.26,49.26,0,1,1,49.26-49.26A49.32,49.32,0,0,1,313.39,310.7Zm0-93.3a44,44,0,1,0,44,44A44.09,44.09,0,0,0,313.39,217.4Z" transform="translate(-38.23 -8)" fill="#302545"/><path d="M359.71,252.1l-2.29-4.69a30.25,30.25,0,0,1,27.71,0l-2.29,4.69A25,25,0,0,0,359.71,252.1Z" transform="translate(-38.23 -8)" fill="#302545"/></svg>