<svg xmlns="http://www.w3.org/2000/svg" viewBox="0 0 694.24 737.63"><circle cx="347.12" cy="384.83" r="347.12" fill="#f9dfaf"/><circle cx="200.42" cy="114.49" r="50.83" fill="#473121"/><circle cx="257.24" cy="63.82" r="50.83" fill="#473121"/><circle cx="338.95" cy="50.83" r="50.83" fill="#473121"/><circle cx="416.72" cy="69.51" r="50.83" fill="#473121"/><circle cx="460.25" cy="106.76" r="50.83" fill="#473121"/><path d="M711.56,743.81H38.44s0-139,48.08-171c25.91-17.27,107.69-47.41,177.59-71.51C323.9,480.62,375,464.4,375,464.4s51,16.18,110.67,36.77c69.95,24.12,151.87,54.3,177.81,71.59C711.56,604.82,711.56,743.81,711.56,743.81Z" transform="translate(-27.88 -6.19)" fill="#e2daf6"/><path d="M486.85,296.79S515,197.56,509.18,150.92C499.76,75.16,352.92,76,311.29,94.51s-10.43,122.78-10.43,122.78Z" transform="translate(-27.88 -6.19)" fill="#936c52"/><path d="M247.27,310.25s-39.06-95.46-38.52-142.46c.88-76.34,146.88-92,190.33-78.21s24.1,120.83,24.1,120.83Z" transform="translate(-27.88 -6.19)" fill="#936c52"/><path d="M490.17,244.15s26.06-19.75,46.61,2.08-.91,76.84-42.1,78.11-35.77-41.65-35.77-41.65Z" transform="translate(-27.88 -6.19)" fill="#f2a98c"/><path d="M241.34,258.12s-28.1-16.7-46.08,7.29,9.51,76.25,50.58,72.9,30.88-45.39,30.88-45.39Z" transform="translate(-27.88 -6.19)" fill="#f2a98c"/><path d="M492.69,292.92a2.69,2.69,0,0,1-2.62-3.32,61,61,0,0,1,6.57-15.49c6.38-10.61,15.11-17,25.24-18.41a2.69,2.69,0,1,1,.75,5.33C502,264,495.37,290.58,495.31,290.85A2.7,2.7,0,0,1,492.69,292.92Z" transform="translate(-27.88 -6.19)" fill="#db6356"/><path d="M499.17,277.81a2.69,2.69,0,0,1-.94-5.21c9-3.4,17.59-3.4,25.43,0a2.69,2.69,0,0,1-2.14,4.94c-6.51-2.81-13.71-2.77-21.4.12A2.84,2.84,0,0,1,499.17,277.81Z" transform="translate(-27.88 -6.19)" fill="#db6356"/><path d="M246.17,306.77a2.71,2.71,0,0,1-2.53-1.78c-.09-.26-9.67-26-30.49-26.58a2.69,2.69,0,0,1-2.61-2.76,2.72,2.72,0,0,1,2.77-2.62c10.22.29,19.6,5.64,27.13,15.47a60.06,60.06,0,0,1,8.26,14.66,2.69,2.69,0,0,1-1.62,3.45A2.86,2.86,0,0,1,246.17,306.77Z" transform="translate(-27.88 -6.19)" fill="#db6356"/><path d="M214.77,295a2.69,2.69,0,0,1-1.34-5c7.4-4.24,15.9-5.2,25.27-2.83a2.69,2.69,0,1,1-1.32,5.21c-8-2-15.13-1.24-21.28,2.29A2.67,2.67,0,0,1,214.77,295Z" transform="translate(-27.88 -6.19)" fill="#db6356"/><path d="M445.77,491.43q-70.77,63.32-141.54,0l4-33.09,12-99.26.05-.48H430.77l7.75,68.6Z" transform="translate(-27.88 -6.19)" fill="#f2a98c"/><path d="M438.52,427.2S422.23,451.73,367.07,459a217.35,217.35,0,0,1-58.86-.62l12-99.26,80.75,17.37Z" transform="translate(-27.88 -6.19)" fill="#d87668"/><path d="M467.42,122.74l-108.53,6.1-108.54,6.1s-27.55,155.26,4.8,232.23c45,107.2,200.75,98.46,233.51-13.12C512.19,274,467.42,122.74,467.42,122.74Z" transform="translate(-27.88 -6.19)" fill="#f2b69b"/><ellipse cx="315.86" cy="267.61" rx="9.39" ry="15.15" transform="translate(-42.39 11.95) rotate(-3.21)" fill="#302545"/><ellipse cx="422.94" cy="261.6" rx="9.39" ry="15.15" transform="translate(-41.88 17.94) rotate(-3.21)" fill="#302545"/><path d="M371.39,333.1a17.11,17.11,0,0,1-11.85-4.39c-2.93-2.75-8.83-10.81-.31-26.19,6.16-11.1,4.48-27.88,4.46-28a2.69,2.69,0,0,1,5.35-.57c.08.76,1.89,18.62-5.1,31.23-4.71,8.5-5,15.67-.72,19.66,4.06,3.82,11.51,3.89,17.33.17a2.69,2.69,0,1,1,2.9,4.54A22.53,22.53,0,0,1,371.39,333.1Z" transform="translate(-27.88 -6.19)" fill="#db6356"/><path d="M419.44,345s-2.42,16.75-15.22,29c-6.83,6.56-16.63,11.84-30.61,12.62-12.22.69-21.4-2.83-28.23-7.91-14.47-10.76-18.44-28.54-18.44-28.54Q369.32,347.85,419.44,345Z" transform="translate(-27.88 -6.19)" fill="#302545"/><path d="M404.22,374.07c-6.83,6.56-16.63,11.84-30.61,12.62-12.22.69-21.4-2.83-28.23-7.91,6.83-6.57,16.62-11.85,30.6-12.64C388.19,365.45,397.37,369,404.22,374.07Z" transform="translate(-27.88 -6.19)" fill="#f25a78"/><path d="M291.75,231.84c-1.49.72-3.14-.91-2.54-4.66,3.39-21,33.93-27.1,45.48-17.22,10.77,9.21-11.17,8.9-27.4,15.16C299.76,228,294.76,230.4,291.75,231.84Z" transform="translate(-27.88 -6.19)" fill="#302545"/><path d="M442.94,223.35c1.57.54,3-1.26,2-4.91-5.72-20.52-36.75-23.13-47.11-12-9.68,10.36,12.09,7.6,28.92,12C434.56,220.46,439.79,222.25,442.94,223.35Z" transform="translate(-27.88 -6.19)" fill="#302545"/><path d="M492,242.94a270.7,270.7,0,0,1-24.38-61.4c-9.24-35.41-9.73-72.9-9.73-72.9l32.47,2.16Z" transform="translate(-27.88 -6.19)" fill="#936c52"/><path d="M239.37,257.12a270.89,270.89,0,0,0,17.35-63.74c5.21-36.22,1.5-73.53,1.5-73.53l-32,5.79Z" transform="translate(-27.88 -6.19)" fill="#936c52"/><ellipse cx="296.17" cy="306.4" rx="21.89" ry="8.49" transform="translate(-44.6 10.9) rotate(-3.21)" fill="#f29e7e"/><ellipse cx="445.1" cy="298.03" rx="21.89" ry="8.49" transform="translate(-43.89 19.24) rotate(-3.21)" fill="#f29e7e"/><circle cx="214.77" cy="122.93" r="51.21" fill="#473121"/><circle cx="295.86" cy="107.29" r="51.21" fill="#473121"/><circle cx="373.69" cy="102.92" r="51.21" fill="#473121"/><circle cx="453.67" cy="109.51" r="51.21" fill="#473121"/><path d="M372.73,406.06a57.84,57.84,0,0,1-14.68-1.88A2.69,2.69,0,1,1,359.4,399c10.87,2.83,21.76,2.21,33.29-1.89a2.69,2.69,0,1,1,1.8,5.07A64.62,64.62,0,0,1,372.73,406.06Z" transform="translate(-27.88 -6.19)" fill="#db6356"/><rect x="153.13" y="532.51" width="392" height="24.45" fill="#f7f7f7"/><rect x="153.13" y="585.69" width="392" height="24.45" fill="#f7f7f7"/><rect x="153.13" y="638.88" width="392" height="24.45" fill="#f7f7f7"/><rect x="153.13" y="692.06" width="392" height="24.45" fill="#f7f7f7"/><path d="M86.52,572.76c-48.08,32.06-48.08,171-48.08,171H319.57L242.86,508.64C178.42,531.25,109.84,557.21,86.52,572.76Zm577,0c-22.89-15.26-89.35-40.55-152.73-62.85l-76.3,233.9H711.56S711.56,604.82,663.48,572.76Z" transform="translate(-27.88 -6.19)" fill="#257d82"/><path d="M375.44,552.54c-46.55,0-72.16-28.09-72.42-28.38a1.61,1.61,0,0,1,2.41-2.15c.25.28,25,27.31,70,27.31H377c46.11-.63,83.68-40.11,84.06-40.51a1.61,1.61,0,1,1,2.35,2.21c-.38.41-38.87,40.88-86.37,41.52Z" transform="translate(-27.88 -6.19)" fill="#afa2e0"/><path d="M281.57,731.44a1.62,1.62,0,0,1-1.52-1.07L224.6,574.59a1.62,1.62,0,0,1,3.05-1.09L283.1,729.28a1.63,1.63,0,0,1-1,2.07A1.76,1.76,0,0,1,281.57,731.44Z" transform="translate(-27.88 -6.19)" fill="#302545"/><path d="M481.89,712.09a1.69,1.69,0,0,1-.58-.1,1.62,1.62,0,0,1-.93-2.09l55.45-146.38a1.61,1.61,0,0,1,3,1.14L483.4,711.05A1.63,1.63,0,0,1,481.89,712.09Z" transform="translate(-27.88 -6.19)" fill="#302545"/><circle cx="481.74" cy="306.37" r="9.62" fill="#f7f7f7"/><circle cx="200.62" cy="322.16" r="9.62" fill="#f7f7f7"/></svg>