<svg xmlns="http://www.w3.org/2000/svg" viewBox="0 0 678.03 734"><circle cx="339.01" cy="357.19" r="339.01" fill="#def9f4"/><path d="M332.64,555.27C521.15,566.85,563.72,233.46,518.17,140c-29.36-60.22-149.4-51.76-197.06-42.37s-106,406.59-106,406.59Z" transform="translate(-35.99 -8)" fill="#3d2031"/><path d="M210.15,572.16c-90-94.34-51.64-331.37-23.85-418,42-131,148.48-187.36,261-113.13C518.55,88.06,507,193.54,507,193.54L450.61,589.87Z" transform="translate(-35.99 -8)" fill="#3d2031"/><path d="M661.86,739.84H88.14s1.52-180,41-213.56c21-17.86,65.37-31.75,110.75-42,48.39-10.88,97.89-17.57,121.27-20.41,8.76-1.06,13.85-1.59,13.85-1.59s5.72.51,15.46,1.59h0c24,2.67,72.35,8.81,119.81,19.45h0c44.75,10,88.7,24.05,110.6,42.91C660.13,560.09,661.86,739.84,661.86,739.84Z" transform="translate(-35.99 -8)" fill="#f7907c"/><path d="M566.88,739.84l-.39.59L375,739.84l-191.49.59-.39-.59c-12.38-19.9-2-82.28,11.36-115.24,13.84-34.09,50.69-99.75,45.4-140.28,16.3-3.66,32.73-6.85,48.24-9.57,30.54-5.38,57.53-9,73-10.84h29.32c15.71,1.75,41.9,5,71.45,10,15.53,2.63,32,5.77,48.36,9.44h0c-6,40.45,31.32,106.87,45.26,141.23C568.9,657.56,579.27,719.94,566.88,739.84Z" transform="translate(-35.99 -8)" fill="#287e49"/><path d="M461.91,473.92c-.9,48.51-39.46,87.57-86.9,87.57-47.19,0-85.58-38.6-86.9-86.74,30.54-5.38,57.53-9,73-10.84h29.32C406.17,465.66,432.36,468.9,461.91,473.92Z" transform="translate(-35.99 -8)" fill="#3f9e61"/><path d="M490.74,235.11s26.93-18.13,46.09,4.66-5.18,76.14-46.09,75.11-33.15-43.29-33.15-43.29Z" transform="translate(-35.99 -8)" fill="#f7907c"/><path d="M490.67,283.57a2.54,2.54,0,0,1-.76-.11,2.62,2.62,0,0,1-1.76-3.27,60.17,60.17,0,0,1,7.37-15c6.91-10.16,15.91-16,26-16.83a2.62,2.62,0,1,1,.44,5.23c-20.63,1.75-28.71,27.83-28.79,28.09A2.62,2.62,0,0,1,490.67,283.57Z" transform="translate(-35.99 -8)" fill="#db6356"/><path d="M521.16,270.19a2.62,2.62,0,0,1-1.18-.28c-6.31-3.15-13.46-3.52-21.26-1.08a2.63,2.63,0,0,1-1.57-5c9.14-2.87,17.62-2.4,25.18,1.39a2.63,2.63,0,0,1-1.17,5Z" transform="translate(-35.99 -8)" fill="#db6356"/><path d="M251.76,235.11s-26.93-18.13-46.09,4.66,5.18,76.14,46.09,75.11,33.15-43.29,33.15-43.29Z" transform="translate(-35.99 -8)" fill="#f7907c"/><path d="M254,283.57a2.63,2.63,0,0,1-2.52-1.87h0c-.08-.26-8.15-26.34-28.79-28.09a2.62,2.62,0,1,1,.44-5.23c10.11.85,19.1,6.67,26,16.83a60.17,60.17,0,0,1,7.37,15,2.63,2.63,0,0,1-1.77,3.27A2.48,2.48,0,0,1,254,283.57Z" transform="translate(-35.99 -8)" fill="#db6356"/><path d="M223.51,270.19a2.63,2.63,0,0,1-1.18-5c7.57-3.79,16-4.26,25.18-1.39a2.63,2.63,0,1,1-1.57,5c-7.8-2.44-14.95-2.08-21.26,1.08A2.58,2.58,0,0,1,223.51,270.19Z" transform="translate(-35.99 -8)" fill="#db6356"/><path d="M436.49,499.69c-28,57.55-98,49.7-122.82.5a36.25,36.25,0,0,1-3.49-20.35l2.66-23.53L324,357.73l0-.48H426.91l7.21,68.14,5.76,54.46A36.54,36.54,0,0,1,436.49,499.69Z" transform="translate(-35.99 -8)" fill="#f7907c"/><path d="M434.12,425.39s-15.16,24.36-66.5,31.54a190.16,190.16,0,0,1-54.78-.62L324,357.73l102.94-.48Z" transform="translate(-35.99 -8)" fill="#bc5b51"/><path d="M265.19,135.74c-8.19,46.07-23.56,152.51-3.42,212.55C280,402.69,341,435.36,371.71,435.36c34.86,0,90.78-32.67,109-87.07,20.14-60,4.77-166.48-3.42-212.55Z" transform="translate(-35.99 -8)" fill="#fe9780"/><ellipse cx="282.01" cy="242.48" rx="9.32" ry="13.23" fill="#302545"/><ellipse cx="388.52" cy="242.48" rx="9.32" ry="13.23" fill="#302545"/><path d="M373.43,316.69a17.27,17.27,0,0,1-12.64-5c-2.74-2.88-8.12-11.18,1.17-25.93,6.72-10.68,6-27.43,6-27.6a2.62,2.62,0,1,1,5.24-.26c0,.75.84,18.56-6.79,30.66-5.15,8.19-5.81,15.3-1.8,19.51,3.83,4,11.24,4.51,17.23,1.14a2.63,2.63,0,0,1,2.58,4.58A22.49,22.49,0,0,1,373.43,316.69Z" transform="translate(-35.99 -8)" fill="#db6356"/><path d="M299.23,223.26c-1.17.48-2-.74-1.65-2,4.63-15.55,26.87-20.79,35.23-12.79,7.8,7.47-8.88,6.3-21.48,10.36C305.48,220.7,301.57,222.29,299.23,223.26Z" transform="translate(-35.99 -8)" fill="#302545"/><path d="M443.28,223.26c1.16.48,2-.74,1.64-2-4.63-15.55-26.87-20.79-35.23-12.79-7.8,7.47,8.88,6.3,21.48,10.36C437,220.7,440.93,222.29,443.28,223.26Z" transform="translate(-35.99 -8)" fill="#302545"/><ellipse cx="263.18" cy="278.03" rx="21.74" ry="8.44" fill="#f7816d"/><ellipse cx="411.32" cy="278.03" rx="21.74" ry="8.44" fill="#f7816d"/><path d="M183.5,742a1.56,1.56,0,0,1-1.3-.69c-13.84-20.47,1-85.6,10.77-117.18a1.58,1.58,0,1,1,3,.93c-11.18,36.12-23.38,96.42-11.17,114.48a1.58,1.58,0,0,1-.42,2.19A1.6,1.6,0,0,1,183.5,742Z" transform="translate(-35.99 -8)" fill="#302545"/><path d="M567.06,742a1.59,1.59,0,0,1-.88-.27,1.58,1.58,0,0,1-.42-2.19c12.21-18.06,0-78.36-11.17-114.48a1.58,1.58,0,1,1,3-.93c9.77,31.58,24.6,96.71,10.77,117.18A1.58,1.58,0,0,1,567.06,742Z" transform="translate(-35.99 -8)" fill="#302545"/><path d="M334.81,336.45a239.35,239.35,0,0,1,80.37,0c.32,11.26-13.86,36.31-40.18,36.31C356.08,372.76,335.81,357.73,334.81,336.45Z" transform="translate(-35.99 -8)" fill="#d13533"/><path d="M412.54,347.3a26.16,26.16,0,0,0,2.64-10.85,239.35,239.35,0,0,0-80.37,0,34.09,34.09,0,0,0,2.33,10.9A239.27,239.27,0,0,1,412.54,347.3Z" transform="translate(-35.99 -8)" fill="#fff"/><circle cx="196.25" cy="292.04" r="8.29" fill="#fff"/><circle cx="474.28" cy="292.04" r="8.29" fill="#fff"/><path d="M374.61,393.09a91.67,91.67,0,0,1-18.68-1.92,2.62,2.62,0,0,1,1.16-5.12c.18,0,17.79,3.94,32.68,0a2.63,2.63,0,0,1,1.34,5.08A65.72,65.72,0,0,1,374.61,393.09Z" transform="translate(-35.99 -8)" fill="#db6356"/><path d="M251.83,250.48s10-39.88,16.83-83.89l6.79-44L254,127.87Z" transform="translate(-35.99 -8)" fill="#3d2031"/><path d="M477.8,119l-2-3.38-112-20.09-89,5.37s-22.21,33.85-34.33,37c-18.7,4.83-41.43,20.22-41.43,20.22s-.34,76.29,82,65.26c63.6-8.53,91.93-107.65,166.32-82.25,31.4,10.72,44.3,123.29,44.3,123.29l4.64-143.31Z" transform="translate(-35.99 -8)" fill="#3d2031"/><path d="M375,700.17c-41.49-71.89-65-156.39-59.55-267H156.61c6.89,61,29.85,161.48,104.51,243.24-2.49-13-5.82-30.48-9.82-50.73C281.53,669.12,328.22,695,375,700.17Z" transform="translate(-35.99 -8)" fill="#3d2031"/></svg>