<svg xmlns="http://www.w3.org/2000/svg" viewBox="0 0 720 741.38"><circle cx="360" cy="370.94" r="360" fill="#f9dfaf"/><path d="M724.05,743.16H26S26,599,75.82,565.76C102.68,547.84,187.5,516.59,260,491.59c62-21.4,115-38.22,115-38.22s52.86,16.79,114.77,38.14c72.55,25,157.51,56.31,184.41,74.25C724.05,599,724.05,743.16,724.05,743.16Z" transform="translate(-15 -4.07)" fill="#066ec7"/><path d="M241.25,248.4c-15.56-120.21-49.22-272-2.63-234.15C342,98.35,356.08-47.12,485,24.72c58.37,32.51,8.26,125,8.26,125Z" transform="translate(-15 -4.07)" fill="#3d2031"/><path d="M514.35,257.58s29.15-105.91,27-150.41c-3.46-72.29-157.59-55-206.65-41.36s-24,99.83-24,99.83Z" transform="translate(-15 -4.07)" fill="#3d2031"/><path d="M503.63,237.77s28.74-18,48,6.48S543.5,323.54,500.83,321s-33.08-46.35-33.08-46.35Z" transform="translate(-15 -4.07)" fill="#f7907c"/><path d="M245.3,229.09s-27.47-19.87-48.27,3.25,2.73,79.64,45.47,80,36.12-44,36.12-44Z" transform="translate(-15 -4.07)" fill="#f7907c"/><path d="M502,288.39a2.72,2.72,0,0,1-.89-.14,2.79,2.79,0,0,1-1.76-3.53,62.58,62.58,0,0,1,8.23-15.39c7.58-10.38,17.18-16.14,27.77-16.68a2.79,2.79,0,1,1,.28,5.57c-21.56,1.1-30.9,28-31,28.27A2.78,2.78,0,0,1,502,288.39Z" transform="translate(-15 -4.07)" fill="#db6356"/><path d="M534.24,275.5a2.77,2.77,0,0,1-1.33-.34c-6.46-3.51-13.91-4.14-22.12-1.87a2.79,2.79,0,0,1-1.48-5.38c9.65-2.67,18.49-1.88,26.26,2.34a2.79,2.79,0,0,1-1.33,5.25Z" transform="translate(-15 -4.07)" fill="#db6356"/><path d="M246,279.79a2.79,2.79,0,0,1-2.69-2.08h0c-.08-.28-7.58-27.75-29-30.29a2.79,2.79,0,1,1,.66-5.54c10.53,1.25,19.73,7.65,26.59,18.51a62.33,62.33,0,0,1,7.17,15.9,2.79,2.79,0,0,1-2,3.41A2.88,2.88,0,0,1,246,279.79Z" transform="translate(-15 -4.07)" fill="#db6356"/><path d="M214.67,264.75a2.79,2.79,0,0,1-1.16-5.32c8-3.7,16.91-3.89,26.36-.58a2.79,2.79,0,0,1-1.84,5.27c-8.05-2.82-15.51-2.69-22.19.38A2.87,2.87,0,0,1,214.67,264.75Z" transform="translate(-15 -4.07)" fill="#db6356"/><path d="M448.4,481.41q-73.39,65.67-146.8,0l4.13-34.32,12.41-102.94.06-.5H432.84l8,71.15Z" transform="translate(-15 -4.07)" fill="#f7907c"/><path d="M440.87,414.8s-9.16,27.9-65.87,38.57c-31.56,5.94-55.45,0-69.27-6.28l12.41-102.94,83.75,18L439.2,400Z" transform="translate(-15 -4.07)" fill="#bc5b51"/><path d="M491.41,110.26l-112.68-3.79-112.67-3.79S223.17,260.5,249.43,343C286,457.93,447.65,463.36,491.86,351.16,523.6,270.6,491.41,110.26,491.41,110.26Z" transform="translate(-15 -4.07)" fill="#fe9780"/><ellipse cx="321.4" cy="245.81" rx="15.71" ry="9.74" transform="translate(49.93 554.7) rotate(-88.07)" fill="#302545"/><ellipse cx="432.56" cy="249.55" rx="15.71" ry="9.74" transform="translate(153.62 669.41) rotate(-88.07)" fill="#302545"/><path d="M301,211.47c-1.24.46-2.09-.85-1.64-2.17,5.37-16.06,28.76-20.75,37.21-12.11,7.88,8.07-9.49,6.26-22.79,10.07C307.63,209,303.5,210.54,301,211.47Z" transform="translate(-15 -4.07)" fill="#302545"/><path d="M451.36,216.52c1.2.55,2.13-.7,1.78-2.05-4.29-16.38-27.31-22.64-36.31-14.58-8.41,7.52,9,6.88,22.05,11.57C444.92,213.64,448.94,215.43,451.36,216.52Z" transform="translate(-15 -4.07)" fill="#302545"/><path d="M505.59,236.69A280.59,280.59,0,0,1,486.11,171c-6.25-37.43-3.28-76.21-3.28-76.21l33.34,5.26Z" transform="translate(-15 -4.07)" fill="#3d2031"/><path d="M243.36,227.87a280.65,280.65,0,0,0,23.84-64.23c8.75-36.93,8.39-75.81,8.39-75.81l-33.62,3Z" transform="translate(-15 -4.07)" fill="#3d2031"/><path d="M301.27,150.22c118.54,26.71,190.14-40,190.14-40L464.58,78.75,372.06,65.69l-98.64,2.89L220,83.78S255.75,140,301.27,150.22Z" transform="translate(-15 -4.07)" fill="#3d2031"/><ellipse cx="297.45" cy="284.05" rx="8.81" ry="22.7" transform="translate(-11.43 567.72) rotate(-88.07)" fill="#f7816d"/><ellipse cx="452.06" cy="289.24" rx="8.81" ry="22.7" transform="translate(132.79 727.26) rotate(-88.07)" fill="#f7816d"/><path d="M579.23,745.45a1.68,1.68,0,0,1-1.67-1.58l-3.78-67.24a1.68,1.68,0,1,1,3.35-.19l3.77,67.24a1.67,1.67,0,0,1-1.57,1.76Z" transform="translate(-15 -4.07)" fill="#302545"/><path d="M174.92,745.45h-.09a1.68,1.68,0,0,1-1.58-1.76L177,676.44a1.67,1.67,0,1,1,3.34.19l-3.78,67.24A1.67,1.67,0,0,1,174.92,745.45Z" transform="translate(-15 -4.07)" fill="#302545"/><path d="M375,514.24s-55.39,54.82-71.7,59.12-57.07-68.18-48.78-79.57,44-38.4,51-34S375,514.24,375,514.24Z" transform="translate(-15 -4.07)" fill="#278dd8"/><path d="M375,514.24s55.39,54.82,71.7,59.12,57.07-68.18,48.78-79.57-44.05-38.4-51-34S375,514.24,375,514.24Z" transform="translate(-15 -4.07)" fill="#278dd8"/><circle cx="362.08" cy="579.81" r="8.39" fill="#fff"/><circle cx="362.08" cy="638.51" r="8.39" fill="#fff"/><circle cx="362.08" cy="697.2" r="8.39" fill="#fff"/><path d="M491.86,351.16c14-35.58,15.56-86.71,12.92-132.73l-14.06-25.51c2.39,51.32-12,179.77-118.52,178.35C272.55,369.93,266.49,277,260.58,186.9l-15.13,22.82c-5.72,45.73-7.62,96.85,4,133.29C286,457.93,447.65,463.36,491.86,351.16Z" transform="translate(-15 -4.07)" fill="#3d2031"/><path d="M450.37,388.44l-162-5.45,4.33-41.5c1.66-15.9,15-27.81,30.55-27.29l97.72,3.28c15.76.53,28.35,13.63,28.66,29.84Z" transform="translate(-15 -4.07)" fill="#3d2031"/><path d="M374.62,318.7A18.24,18.24,0,0,1,360.83,313c-2.77-3.11-8.11-12,2.12-27.08,7.39-10.89,7.21-28.38,7.21-28.56a2.79,2.79,0,0,1,5.58-.09c0,.79.22,19.41-8.17,31.78-5.65,8.35-6.59,15.73-2.57,20.24,3.84,4.32,11.53,5.09,17.89,1.79a2.79,2.79,0,0,1,2.57,5A23.72,23.72,0,0,1,374.62,318.7Z" transform="translate(-15 -4.07)" fill="#db6356"/><path d="M407.89,340.81s-2.8,9-13.05,15c-5.47,3.2-13.06,5.53-23.48,5.18-9.12-.31-15.73-2.74-20.49-5.89a28.1,28.1,0,0,1-12-16.59Z" transform="translate(-15 -4.07)" fill="#f7f7f7"/><rect x="433.21" y="697.2" width="96.73" height="41.88" fill="#278dd8"/><path d="M246.38,58.84s-32.62-8.55-43.64-17.53-14.25,15.73-8.9,28,19.92,40.16,37.44,41.21l17.53,1Z" transform="translate(-15 -4.07)" fill="#3d2031"/><path d="M234.84,93.74s-27.58,3.4-38.76-.12-5.24,15.6,1.74,24.18C209.91,132.68,225.3,142.48,239,138l13.74-4.53Z" transform="translate(-15 -4.07)" fill="#3d2031"/></svg>