<svg xmlns="http://www.w3.org/2000/svg" viewBox="0 0 734 744.7"><circle cx="367" cy="372.94" r="367" fill="#f9dfaf"/><path d="M730.84,744.44H19.16S32.05,644.38,70,596.38c61-77.13,303.27-160.83,303.27-160.83S627.26,517.3,680,596.38C714,647.29,730.84,744.44,730.84,744.44Z" transform="translate(-8 -2.07)" fill="#942215"/><path d="M583.2,746.78a1.71,1.71,0,0,1-1.7-1.61l-3.85-68.55a1.71,1.71,0,1,1,3.41-.19L584.91,745a1.7,1.7,0,0,1-1.61,1.8Z" transform="translate(-8 -2.07)" fill="#302545"/><path d="M171,746.78h-.09a1.7,1.7,0,0,1-1.61-1.8l3.85-68.54a1.71,1.71,0,1,1,3.41.19l-3.85,68.55A1.72,1.72,0,0,1,171,746.78Z" transform="translate(-8 -2.07)" fill="#302545"/><polygon points="414.94 742.37 319.06 742.37 308.26 577.83 292.18 475.53 441.82 475.53 425.75 577.83 414.94 742.37" fill="#302545"/><path d="M233.89,244.55s-55.95-65.66-21.36-144.44C249.9,15,416.7-21,470.83,17.43c70.9,50.36,34,146.25,34,146.25Z" transform="translate(-8 -2.07)" fill="#3d2031"/><path d="M518.35,244.55s31.26-79.15,27.89-124.44c-6.85-92-116.63-42.21-199.65-52.66-51.52-6.48-38.89,90.4-38.89,90.4Z" transform="translate(-8 -2.07)" fill="#3d2031"/><path d="M506.75,224.73s28.67-19.3,49.07,5-5.51,81.06-49.07,80-35.29-46.09-35.29-46.09Z" transform="translate(-8 -2.07)" fill="#f7ad9a"/><path d="M243.25,224.73s-28.67-19.3-49.07,5,5.51,81.06,49.07,80,35.29-46.09,35.29-46.09Z" transform="translate(-8 -2.07)" fill="#f7ad9a"/><path d="M506.68,276.37a2.91,2.91,0,0,1-.82-.12,2.85,2.85,0,0,1-1.91-3.54,64.36,64.36,0,0,1,7.85-16c7.37-10.83,17-17,27.73-17.94a2.85,2.85,0,0,1,.48,5.67c-21.94,1.85-30.52,29.58-30.61,29.86A2.85,2.85,0,0,1,506.68,276.37Z" transform="translate(-8 -2.07)" fill="#db6356"/><path d="M539.13,262.12a2.78,2.78,0,0,1-1.27-.3c-6.7-3.36-14.3-3.74-22.6-1.15a2.84,2.84,0,1,1-1.69-5.43c9.74-3.05,18.77-2.54,26.84,1.49a2.85,2.85,0,0,1-1.28,5.39Z" transform="translate(-8 -2.07)" fill="#db6356"/><path d="M245.63,276.37a2.85,2.85,0,0,1-2.73-2c-.1-.35-8.7-28-30.6-29.86a2.84,2.84,0,1,1,.47-5.67c10.78.91,20.37,7.11,27.73,17.94a63.54,63.54,0,0,1,7.85,16,2.85,2.85,0,0,1-2.72,3.66Z" transform="translate(-8 -2.07)" fill="#db6356"/><path d="M213.17,262.12a2.85,2.85,0,0,1-1.27-5.39c8.06-4,17.09-4.54,26.84-1.49a2.84,2.84,0,0,1-1.7,5.43c-8.29-2.59-15.89-2.2-22.6,1.15A2.75,2.75,0,0,1,213.17,262.12Z" transform="translate(-8 -2.07)" fill="#db6356"/><path d="M449.82,477.61q-74.82,66.93-149.64,0l4.21-35L317,337.67l.06-.51H434l8.2,72.54Z" transform="translate(-8 -2.07)" fill="#f7ad9a"/><path d="M442.16,409.7s-17.22,25.93-75.55,33.58a230.15,230.15,0,0,1-62.22-.66L317,337.67,402.41,356Z" transform="translate(-8 -2.07)" fill="#d87668"/><path d="M489.93,95.23H260.07s-38.29,162.26-8.71,245.43c41.2,115.83,206.08,115.83,247.28,0C528.22,257.49,489.93,95.23,489.93,95.23Z" transform="translate(-8 -2.07)" fill="#f9b5a0"/><ellipse cx="313.36" cy="237.09" rx="9.92" ry="16.02" fill="#302545"/><ellipse cx="426.75" cy="237.09" rx="9.92" ry="16.02" fill="#302545"/><path d="M377.32,311.62a18.4,18.4,0,0,1-13.49-5.37c-2.92-3.07-8.67-11.93,1.24-27.66,7.17-11.39,6.37-29.17,6.36-29.35a2.85,2.85,0,0,1,5.69-.28c0,.8.88,19.77-7.24,32.66-5.47,8.7-6.17,16.24-1.92,20.71,4.06,4.27,11.92,4.79,18.28,1.21a2.85,2.85,0,1,1,2.79,5A24,24,0,0,1,377.32,311.62Z" transform="translate(-8 -2.07)" fill="#db6356"/><path d="M377.12,345.94c-14.44,0-28.88-3.35-43.22-10.05a2.84,2.84,0,1,1,2.41-5.15c27.08,12.64,54.54,12.64,81.62,0a2.84,2.84,0,0,1,2.41,5.15C406,342.59,391.56,345.94,377.12,345.94Z" transform="translate(-8 -2.07)" fill="#db6356"/><path d="M375,367.23a82,82,0,0,1-18.64-2.16,2.84,2.84,0,1,1,1.29-5.54,75.61,75.61,0,0,0,34.7,0,2.84,2.84,0,1,1,1.29,5.54A82,82,0,0,1,375,367.23Z" transform="translate(-8 -2.07)" fill="#db6356"/><path d="M299.42,204.87c-1.25.52-2.16-.79-1.75-2.15,4.93-16.54,28.6-22.13,37.5-13.61,8.3,7.95-9.45,6.7-22.87,11C306.07,202.15,301.92,203.84,299.42,204.87Z" transform="translate(-8 -2.07)" fill="#302545"/><path d="M452.76,204.87c1.25.52,2.16-.79,1.75-2.15-4.93-16.54-28.6-22.13-37.5-13.61-8.3,7.95,9.45,6.7,22.87,11C446.11,202.15,450.26,203.84,452.76,204.87Z" transform="translate(-8 -2.07)" fill="#302545"/><path d="M240.15,260.53s11.92-77.07,32.36-94.27c29.6-24.91-3.24-86.49-3.24-86.49L235.12,84Z" transform="translate(-8 -2.07)" fill="#3d2031"/><path d="M494.84,92.86l-2.17-3.65L371.37,67.45l-96.32,5.82s-24,36.64-37.16,40c-20.25,5.23-25.36,5-25.36,5s-9.24,78.85,79.88,66.9c68.85-9.23,87.23-84.92,167.76-57.42,34,11.61,49.62,122.52,49.62,122.52l5-155.14Z" transform="translate(-8 -2.07)" fill="#3d2031"/><ellipse cx="290.26" cy="276.87" rx="23.14" ry="8.98" fill="#f4a089"/><ellipse cx="447.97" cy="276.87" rx="23.14" ry="8.98" fill="#f4a089"/><path d="M316.26,579.9,304.05,444.26s-48.64,29-64.39,59c-7.15,13.61-17.16,39.15-26,63-5.75,15.59,11.15,30,25.54,21.64C264.25,573.47,294.6,563.25,316.26,579.9Z" transform="translate(-8 -2.07)" fill="#fcd486"/><path d="M433.75,579.9,446,444.26s48.64,29,64.39,59c7.15,13.61,17.15,39.15,26,63,5.76,15.59-11.14,30-25.53,21.64C485.76,573.47,455.41,563.25,433.75,579.9Z" transform="translate(-8 -2.07)" fill="#fcd486"/></svg>