<svg xmlns="http://www.w3.org/2000/svg" viewBox="0 0 717.32 742.11"><circle cx="358.66" cy="371.26" r="358.66" fill="#f9dfaf"/><path d="M722.75,743.56H27.25s9.42-145.41,60.8-175.83c54.28-32.13,287-112.87,287-112.87S613.89,535.6,662,567.73C711.59,600.92,722.75,743.56,722.75,743.56Z" transform="translate(-16.34 -3.74)" fill="#f64c4a"/><path d="M361.42,672.39h0a1.66,1.66,0,0,1-1.66-1.67l.1-151.1a1.67,1.67,0,0,1,1.67-1.67h0a1.67,1.67,0,0,1,1.67,1.67l-.11,151.1A1.66,1.66,0,0,1,361.42,672.39Z" transform="translate(-16.34 -3.74)" fill="#302545"/><path d="M483,488.42c-5.08-11.55-52.12-33.56-52.12-33.56L375,496.37l-55.89-41.51s-47,22-52.12,33.56c-9.69,22.07,24.81,104.19,32.61,90.34,19.1-33.93,52.57-50.5,75.4-58.22,22.83,7.72,56.3,24.29,75.4,58.22C458.2,592.61,492.7,510.49,483,488.42Z" transform="translate(-16.34 -3.74)" fill="#fff7f5"/><path d="M229.39,259.09s-1.12-73.73-31-115.52C145.57,69.76,367-53.72,436.35,34,473,80.43,464.07,145.58,464.07,145.58Z" transform="translate(-16.34 -3.74)" fill="#3d2031"/><path d="M510.71,251s13.45-82.6,24.9-117.13C565.83,42.71,390.29,2.93,318.8,56.6c-40.58,30.46-16.31,115.61-16.31,115.61Z" transform="translate(-16.34 -3.74)" fill="#3d2031"/><path d="M498.81,231.94s27.47-19.66,48.08,3.47-3.1,79.33-45.68,79.48-35.77-44-35.77-44Z" transform="translate(-16.34 -3.74)" fill="#ffab94"/><path d="M241.41,239.37s-28.55-18-47.8,6.23,7.67,79,50.19,76.72,33.18-46,33.18-46Z" transform="translate(-16.34 -3.74)" fill="#ffab94"/><path d="M500.12,282.39a2.55,2.55,0,0,1-.72-.1,2.78,2.78,0,0,1-2-3.4,62.9,62.9,0,0,1,7.22-15.82c6.89-10.78,16.09-17.11,26.58-18.3a2.78,2.78,0,1,1,.63,5.52c-21.44,2.44-29,29.76-29.06,30A2.77,2.77,0,0,1,500.12,282.39Z" transform="translate(-16.34 -3.74)" fill="#db6356"/><path d="M531.42,267.55a2.87,2.87,0,0,1-1.17-.25c-6.64-3.09-14.08-3.26-22.11-.49a2.78,2.78,0,0,1-1.81-5.26c9.44-3.25,18.27-3,26.27.7a2.78,2.78,0,0,1-1.18,5.3Z" transform="translate(-16.34 -3.74)" fill="#db6356"/><path d="M245.11,289.75a2.77,2.77,0,0,1-2.64-1.91c-.13-.38-9.31-27.12-30.74-28.31A2.78,2.78,0,0,1,212,254c10.55.58,20.1,6.37,27.6,16.74a63,63,0,0,1,8.12,15.37,2.79,2.79,0,0,1-1.77,3.52A2.93,2.93,0,0,1,245.11,289.75Z" transform="translate(-16.34 -3.74)" fill="#db6356"/><path d="M213,276.74a2.78,2.78,0,0,1-1.32-5.23c7.77-4.17,16.58-4.91,26.18-2.21a2.78,2.78,0,0,1-1.5,5.35c-8.18-2.3-15.59-1.71-22.05,1.76A2.68,2.68,0,0,1,213,276.74Z" transform="translate(-16.34 -3.74)" fill="#db6356"/><path d="M448.12,482.79q-73.12,65.41-146.24,0L306,448.6,318.36,346l.05-.5H432.62l8,70.89Z" transform="translate(-16.34 -3.74)" fill="#ffab94"/><path d="M440.63,416.43s-16.82,25.34-73.83,32.81A225.13,225.13,0,0,1,306,448.6L318.36,346,401.79,364Z" transform="translate(-16.34 -3.74)" fill="#bc5b51"/><path d="M478.73,105.91l-112.27,3.24-112.27,3.24s-32.83,159.59-1.59,240c43.51,112,204.58,107.34,241.56-7C520.71,263.34,478.73,105.91,478.73,105.91Z" transform="translate(-16.34 -3.74)" fill="#f9b5a0"/><ellipse cx="318.27" cy="256.49" rx="9.7" ry="10.42" transform="translate(-23.6 5.55) rotate(-1.65)" fill="#302545"/><ellipse cx="429.03" cy="253.3" rx="9.7" ry="10.42" transform="translate(-23.47 8.74) rotate(-1.65)" fill="#302545"/><path d="M374.21,320.48a17.9,17.9,0,0,1-12.71-4.87c-2.95-2.93-8.8-11.42.43-27.06,6.66-11.3,5.4-28.68,5.39-28.85a2.78,2.78,0,0,1,5.54-.44c.06.78,1.43,19.29-6.14,32.11-5.11,8.65-5.58,16-1.3,20.29,4.09,4,11.78,4.34,17.9.67a2.78,2.78,0,0,1,2.86,4.76A23.4,23.4,0,0,1,374.21,320.48Z" transform="translate(-16.34 -3.74)" fill="#db6356"/><path d="M294.05,213.87c-1.29.23-1.89-1.2-1.22-2.42,8.14-14.78,31.91-15.2,38.63-5.22,6.29,9.32-10.41,4.44-24.12,5.79C301,212.65,296.65,213.4,294.05,213.87Z" transform="translate(-16.34 -3.74)" fill="#302545"/><path d="M446.49,209.47c1.31.16,1.82-1.31,1.08-2.48-9-14.29-32.73-13.34-38.87-3-5.73,9.67,10.65,3.83,24.42,4.39C439.51,208.65,443.87,209.16,446.49,209.47Z" transform="translate(-16.34 -3.74)" fill="#302545"/><path d="M500.69,230.74a279.41,279.41,0,0,1-23.45-64.1c-8.54-36.83-8-75.57-8-75.57l33.47,3.15Z" transform="translate(-16.34 -3.74)" fill="#3d2031"/><path d="M239.4,238.28a279.81,279.81,0,0,0,19.72-65.35c6.4-37.26,3.62-75.91,3.62-75.91L229.5,102.1Z" transform="translate(-16.34 -3.74)" fill="#3d2031"/><ellipse cx="296.68" cy="290.77" rx="22.61" ry="8.78" transform="translate(-24.6 4.94) rotate(-1.65)" fill="#f4a089"/><ellipse cx="450.74" cy="286.33" rx="22.61" ry="8.78" transform="translate(-24.41 9.38) rotate(-1.65)" fill="#f4a089"/><path d="M578.47,745.84a1.66,1.66,0,0,1-1.66-1.57l-3.77-67a1.67,1.67,0,0,1,3.33-.18l3.77,67a1.67,1.67,0,0,1-1.57,1.76Z" transform="translate(-16.34 -3.74)" fill="#302545"/><path d="M175.67,745.84h-.1a1.67,1.67,0,0,1-1.57-1.76l3.76-67a1.69,1.69,0,0,1,1.76-1.57,1.67,1.67,0,0,1,1.58,1.75l-3.77,67A1.66,1.66,0,0,1,175.67,745.84Z" transform="translate(-16.34 -3.74)" fill="#302545"/><path d="M452.12,138.17c-12.46-31.89-61.9-48.64-106.79,3.84-22.52,26.33-53.16,49-79.35,61.87s-37.38-7.34-37.38-7.34L238.72,93l216.69-35.4Z" transform="translate(-16.34 -3.74)" fill="#3d2031"/><path d="M448.87,127c11.66,40.68,23.09,75,51.82,103.74l12.56-42.41L497.17,85.52,449.22,57.76Z" transform="translate(-16.34 -3.74)" fill="#3d2031"/><circle cx="370.01" cy="575.36" r="11.35" fill="#302545"/><circle cx="370.01" cy="633.36" r="11.35" fill="#302545"/><path d="M421.94,333.33s-3,17.22-16.53,29.55c-7.24,6.59-17.51,11.76-32,12.17-12.64.37-22-3.52-28.94-9-14.64-11.52-18.24-30-18.24-30Q370.11,334.82,421.94,333.33Z" transform="translate(-16.34 -3.74)" fill="#302545"/><path d="M405.41,362.88c-7.24,6.59-17.51,11.76-32,12.17-12.64.37-22-3.52-28.94-9,7.24-6.59,17.5-11.78,32-12.19C389.1,353.53,398.48,357.42,405.41,362.88Z" transform="translate(-16.34 -3.74)" fill="#f25a78"/></svg>