<svg xmlns="http://www.w3.org/2000/svg" viewBox="0 0 727.29 736"><circle cx="363.64" cy="364.49" r="363.64" fill="#f9dfaf"/><path d="M727.58,743H22.42s0-145.61,50.37-179.19c27.14-18.1,112.81-49.67,186-74.92C321.47,467.27,375,450.28,375,450.28s53.4,17,115.93,38.53c73.29,25.26,159.11,56.88,186.28,75C727.58,597.39,727.58,743,727.58,743Z" transform="translate(-11.36 -7)" fill="#302545"/><ellipse cx="361.93" cy="473.92" rx="206.1" ry="117.89" fill="#302545"/><path d="M480.31,284.56s44.65,33.44,32,49.25-50.2-8.39-50.2-8.39Z" transform="translate(-11.36 -7)" fill="#3d2031"/><path d="M469.54,322.57s40.66,38.19,26.31,52.49-49-13.91-49-13.91Z" transform="translate(-11.36 -7)" fill="#3d2031"/><path d="M450.44,353.32s29.53,47.32,12,57.47-43.76-26-43.76-26Z" transform="translate(-11.36 -7)" fill="#3d2031"/><path d="M251.18,297.43S210.56,335.66,224.92,350s48.94-14,48.94-14Z" transform="translate(-11.36 -7)" fill="#3d2031"/><path d="M266.14,334S230,376.49,245.87,389.1,293,369.8,293,369.8Z" transform="translate(-11.36 -7)" fill="#3d2031"/><path d="M288.57,362.41s-24.06,50.33-5.5,58.46,40.58-30.71,40.58-30.71Z" transform="translate(-11.36 -7)" fill="#3d2031"/><path d="M313.5,716.67h-.28a3.94,3.94,0,0,1-3.66-4.21l8.86-126.87a3.95,3.95,0,0,1,7.88.55L317.43,713A3.94,3.94,0,0,1,313.5,716.67Z" transform="translate(-11.36 -7)" fill="#fff"/><path d="M429.74,716.67a3.94,3.94,0,0,1-3.93-3.67l-8.87-126.87a3.94,3.94,0,1,1,7.87-.55l8.87,126.87a4,4,0,0,1-3.66,4.21Z" transform="translate(-11.36 -7)" fill="#fff"/><path d="M505,239.77s16.94-39.36,10.77-83.94C505.72,83.42,347.92,48.5,299.8,66.69s-8,99-8,99Z" transform="translate(-11.36 -7)" fill="#3d2031"/><path d="M225.08,255.49S204.44,221.93,205.57,177c1.85-73.08,154.16-129.12,204-116.42S428.66,158,428.66,158Z" transform="translate(-11.36 -7)" fill="#3d2031"/><path d="M494.26,220.71s27.3-20.69,48.83,2.18-1,80.49-44.11,81.82-37.47-43.63-37.47-43.63Z" transform="translate(-11.36 -7)" fill="#fe9780"/><path d="M233.59,235.35s-29.44-17.5-48.28,7.64,10,79.88,53,76.36,32.36-47.55,32.36-47.55Z" transform="translate(-11.36 -7)" fill="#fe9780"/><path d="M496.91,271.8a3,3,0,0,1-.66-.08,2.81,2.81,0,0,1-2.09-3.39A63.44,63.44,0,0,1,501,252.1c6.69-11.12,15.83-17.79,26.44-19.29a2.82,2.82,0,1,1,.78,5.58c-21.59,3.05-28.55,31-28.62,31.25A2.81,2.81,0,0,1,496.91,271.8Z" transform="translate(-11.36 -7)" fill="#db6356"/><path d="M503.69,256a2.82,2.82,0,0,1-1-5.46c9.47-3.56,18.44-3.56,26.64,0a2.82,2.82,0,1,1-2.24,5.18c-6.81-2.95-14.36-2.91-22.42.12A2.84,2.84,0,0,1,503.69,256Z" transform="translate(-11.36 -7)" fill="#db6356"/><path d="M238.65,286.31a2.81,2.81,0,0,1-2.65-1.87c-.15-.41-10.19-27.23-31.94-27.84a2.82,2.82,0,0,1-2.74-2.9,2.86,2.86,0,0,1,2.9-2.73c10.71.3,20.54,5.9,28.43,16.2a63.2,63.2,0,0,1,8.65,15.36,2.82,2.82,0,0,1-1.69,3.61A2.94,2.94,0,0,1,238.65,286.31Z" transform="translate(-11.36 -7)" fill="#db6356"/><path d="M205.75,274a2.81,2.81,0,0,1-1.4-5.26c7.75-4.44,16.66-5.44,26.47-3a2.82,2.82,0,0,1-1.38,5.47c-8.35-2.11-15.85-1.3-22.29,2.39A2.85,2.85,0,0,1,205.75,274Z" transform="translate(-11.36 -7)" fill="#db6356"/><path d="M449.14,478.61q-74.14,66.32-148.28,0L305,443.94l12.54-104,.05-.5h115.8l8.12,71.87Z" transform="translate(-11.36 -7)" fill="#fe9780"/><path d="M441.54,411.32S424.48,437,366.69,444.59a228.1,228.1,0,0,1-61.66-.65l12.54-104,84.59,18.2Z" transform="translate(-11.36 -7)" fill="#aa534f"/><path d="M470.43,93.52l-113.7,6.39L243,106.3s-28.87,162.65,5,243.28c47.2,112.31,210.31,103.15,244.63-13.74C517.33,251.92,470.43,93.52,470.43,93.52Z" transform="translate(-11.36 -7)" fill="#fe9780"/><ellipse cx="311.66" cy="245.29" rx="9.83" ry="15.87" transform="translate(-24.62 10.86) rotate(-3.21)" fill="#302545"/><ellipse cx="423.83" cy="238.99" rx="9.83" ry="15.87" transform="translate(-24.09 17.14) rotate(-3.21)" fill="#302545"/><path d="M369.83,313.89a18,18,0,0,1-12.42-4.59c-3.07-2.89-9.24-11.33-.32-27.44,6.47-11.66,4.69-29.21,4.67-29.39a2.82,2.82,0,1,1,5.61-.59c.08.79,2,19.51-5.35,32.71-4.93,8.91-5.2,16.42-.75,20.6,4.25,4,12.06,4.07,18.16.18a2.82,2.82,0,0,1,3,4.75A23.64,23.64,0,0,1,369.83,313.89Z" transform="translate(-11.36 -7)" fill="#db6356"/><path d="M388.79,385.78a2.82,2.82,0,0,1-.62-5.57c11-2.5,20.63-10.12,24.2-13.8a2.82,2.82,0,0,1,4.05,3.93c-4,4.1-14.73,12.58-27,15.37A3.38,3.38,0,0,1,388.79,385.78Z" transform="translate(-11.36 -7)" fill="#db6356"/><path d="M288.05,212.58c-1.21.58-2.18-.66-1.85-2,4-16.64,27.06-23.48,36.34-15.55,8.66,7.4-9,7.15-22,12.18C294.48,209.52,290.46,211.42,288.05,212.58Z" transform="translate(-11.36 -7)" fill="#302545"/><path d="M439.75,204.06c1.26.44,2.09-.9,1.61-2.22-5.79-16.1-29.52-20.31-37.85-11.39-7.77,8.33,9.72,6.11,23.24,9.65C433,201.74,437.22,203.18,439.75,204.06Z" transform="translate(-11.36 -7)" fill="#302545"/><path d="M234,277.66c24.47-52.47,26.88-101,16.8-171.8l-32.95-8Z" transform="translate(-11.36 -7)" fill="#3d2031"/><path d="M499.65,262.74c-30.2-49.4-38-97.36-35.94-168.84l31.85-11.67Z" transform="translate(-11.36 -7)" fill="#3d2031"/><ellipse cx="291.02" cy="285.92" rx="22.93" ry="8.9" transform="translate(-26.93 9.77) rotate(-3.21)" fill="#f7816d"/><ellipse cx="447.04" cy="277.16" rx="22.93" ry="8.9" transform="translate(-26.2 18.51) rotate(-3.21)" fill="#f7816d"/><path d="M415.09,319.52s.73,15.34-8.82,28.6c-5.09,7.09-13.12,13.58-25.76,16.83-11.05,2.85-20.06,1.4-27.19-1.87-15.1-6.93-21.85-22-21.85-22C358.59,341.8,386.59,335.25,415.09,319.52Z" transform="translate(-11.36 -7)" fill="#f7f7f7"/><path d="M351.72,7.29c-87.83,4.93-155.49,72-151.12,149.81l318.06-17.86C514.29,61.43,439.55,2.35,351.72,7.29Z" transform="translate(-11.36 -7)" fill="#f04847"/><path d="M517.92,175.14Q359.61,147.72,205.36,192.7c-8,2.33-16.12-3.93-17.7-13.69l-3.95-24.5c-1.43-8.91,3.14-17.5,10.46-19.55C299.11,105.62,415,99.11,522.57,116.52c7.51,1.21,13,9.24,12.59,18.25L534,159.56C533.5,169.44,526.13,176.56,517.92,175.14Z" transform="translate(-11.36 -7)" fill="#d13533"/><path d="M301.15,112.9a2.25,2.25,0,0,1-2.25-2.22c-.64-51.35,23.61-86.58,24.64-88.06a2.25,2.25,0,0,1,3.69,2.59c-.24.35-24.45,35.57-23.82,85.41a2.26,2.26,0,0,1-2.23,2.28Z" transform="translate(-11.36 -7)" fill="#d13533"/><path d="M235.37,128.23a2.12,2.12,0,0,1-.44,0,2.25,2.25,0,0,1-1.78-2.64c12.55-63.88,63.09-97.36,63.6-97.7a2.26,2.26,0,0,1,2.46,3.79c-.5.32-49.46,32.83-61.63,94.78A2.27,2.27,0,0,1,235.37,128.23Z" transform="translate(-11.36 -7)" fill="#d13533"/><path d="M413.54,106.59a2.26,2.26,0,0,1-2.24-2c-5-49.59-33-81.88-33.24-82.2a2.26,2.26,0,1,1,3.38-3c1.19,1.35,29.23,33.64,34.35,84.74a2.26,2.26,0,0,1-2,2.47Z" transform="translate(-11.36 -7)" fill="#d13533"/><path d="M480.64,114.45a2.25,2.25,0,0,1-2.15-1.57c-19.06-60.27-71.33-87-71.86-87.29a2.25,2.25,0,1,1,2-4c.54.27,54.51,27.89,74.14,90a2.27,2.27,0,0,1-1.47,2.83A2.33,2.33,0,0,1,480.64,114.45Z" transform="translate(-11.36 -7)" fill="#d13533"/><path d="M357.13,109.36a2.26,2.26,0,0,1-2.25-2.13l-4.94-88a2.25,2.25,0,1,1,4.5-.25l4.95,88a2.27,2.27,0,0,1-2.13,2.38Z" transform="translate(-11.36 -7)" fill="#d13533"/></svg>