<svg xmlns="http://www.w3.org/2000/svg" viewBox="0 0 719.91 736"><circle cx="359.96" cy="368" r="359.96" fill="#f9dfaf"/><path d="M724,743H26s0-142.12,49.87-174.9C102.72,550.44,187.52,519.63,260,495c62-21.09,115-37.67,115-37.67s52.85,16.55,114.76,37.6c72.54,24.66,157.49,55.51,184.38,73.19C724,600.88,724,743,724,743Z" transform="translate(-15.04 -7)" fill="#3a264b"/><polygon points="433.35 474.28 395.98 687.49 387.48 736 332.42 736 323.92 687.5 286.57 474.28 433.35 474.28" fill="#e2daf6"/><path d="M375,541.38S342.6,558,344.32,565.65,359,600.15,359,600.15h32s12.94-26.84,14.67-34.5S375,541.38,375,541.38Z" transform="translate(-15.04 -7)" fill="#d13533"/><path d="M411,694.48,402.52,743H347.46L339,694.5c7.65-41.07,20-94.35,20-94.35h32S403.38,653.42,411,694.48Z" transform="translate(-15.04 -7)" fill="#f04847"/><path d="M233.15,252.7s-21.68-96.89-17.5-152.79c6.8-90.82,212.73-119.75,261.46-65.79,39.77,44-5.25,111.5-5.25,111.5Z" transform="translate(-15.04 -7)" fill="#ac435e"/><path d="M515.6,252.7s24-102.06,20.38-146.45c-5.88-72.13-158.7-69.41-207.27-54.1S309,167.66,309,167.66Z" transform="translate(-15.04 -7)" fill="#ac435e"/><path d="M504.22,233.27s28.12-18.93,48.13,4.86-5.41,79.5-48.13,78.42-34.61-45.2-34.61-45.2Z" transform="translate(-15.04 -7)" fill="#f7907c"/><path d="M245.78,233.27s-28.12-18.93-48.13,4.86,5.41,79.5,48.13,78.42,34.61-45.2,34.61-45.2Z" transform="translate(-15.04 -7)" fill="#f7907c"/><path d="M504.15,283.91a2.8,2.8,0,0,1-2.67-3.59,62.18,62.18,0,0,1,7.7-15.65c7.22-10.62,16.63-16.71,27.19-17.6a2.79,2.79,0,1,1,.47,5.56c-21.51,1.82-29.94,29-30,29.29A2.79,2.79,0,0,1,504.15,283.91Z" transform="translate(-15.04 -7)" fill="#db6356"/><path d="M536,269.94a2.76,2.76,0,0,1-1.24-.3c-6.58-3.29-14-3.67-22.17-1.12a2.79,2.79,0,0,1-1.66-5.33c9.55-3,18.41-2.5,26.32,1.46a2.79,2.79,0,0,1-1.25,5.29Z" transform="translate(-15.04 -7)" fill="#db6356"/><path d="M248.11,283.91a2.79,2.79,0,0,1-2.67-2c-.11-.35-8.53-27.48-30-29.29a2.79,2.79,0,1,1,.47-5.56c10.56.89,20,7,27.19,17.6a62.18,62.18,0,0,1,7.7,15.65,2.78,2.78,0,0,1-1.87,3.47A2.82,2.82,0,0,1,248.11,283.91Z" transform="translate(-15.04 -7)" fill="#db6356"/><path d="M216.28,269.94a2.79,2.79,0,0,1-1.25-5.29c7.91-4,16.76-4.45,26.32-1.46a2.79,2.79,0,0,1-1.66,5.33c-8.13-2.55-15.59-2.17-22.17,1.12A2.76,2.76,0,0,1,216.28,269.94Z" transform="translate(-15.04 -7)" fill="#db6356"/><path d="M448.39,481.29C423.93,503.17,375,541.38,375,541.38s-48.93-38.21-73.39-60.09L305.74,447,318.15,344l.06-.5H432.83l8,71.14Z" transform="translate(-15.04 -7)" fill="#f7907c"/><path d="M440.87,414.68S424,440.12,366.78,447.62a225.56,225.56,0,0,1-61-.65L318.15,344l83.73,18Z" transform="translate(-15.04 -7)" fill="#bc5b51"/><path d="M487.73,106.25H262.27S224.72,265.4,253.73,347c40.41,113.61,202.13,113.61,242.54,0C525.28,265.4,487.73,106.25,487.73,106.25Z" transform="translate(-15.04 -7)" fill="#fe9780"/><ellipse cx="307.34" cy="240.42" rx="9.73" ry="15.71" fill="#302545"/><ellipse cx="418.56" cy="240.42" rx="9.73" ry="15.71" fill="#302545"/><path d="M377.28,318.49a18,18,0,0,1-13.23-5.27c-2.87-3-8.51-11.7,1.21-27.13,7-11.14,6.25-28.61,6.24-28.79a2.79,2.79,0,0,1,5.58-.27c0,.78.87,19.39-7.1,32-5.37,8.53-6.06,15.93-1.89,20.32,4,4.18,11.7,4.69,17.94,1.18a2.79,2.79,0,0,1,2.73,4.87A23.58,23.58,0,0,1,377.28,318.49Z" transform="translate(-15.04 -7)" fill="#db6356"/><path d="M377.08,352.14a99.42,99.42,0,0,1-42.39-9.85,2.79,2.79,0,1,1,2.36-5.05c26.56,12.4,53.49,12.4,80.06,0a2.79,2.79,0,0,1,2.36,5.05A99.48,99.48,0,0,1,377.08,352.14Z" transform="translate(-15.04 -7)" fill="#db6356"/><path d="M375,373a80.12,80.12,0,0,1-18.29-2.12,2.79,2.79,0,1,1,1.27-5.43,74.42,74.42,0,0,0,34,0,2.79,2.79,0,1,1,1.27,5.43A80.12,80.12,0,0,1,375,373Z" transform="translate(-15.04 -7)" fill="#db6356"/><path d="M300.87,213.79c-1.22.5-2.12-.78-1.72-2.11C304,195.45,327.2,190,335.93,198.33c8.15,7.8-9.27,6.57-22.43,10.82C307.39,211.12,303.32,212.78,300.87,213.79Z" transform="translate(-15.04 -7)" fill="#302545"/><path d="M451.27,213.79c1.22.5,2.11-.78,1.72-2.11-4.84-16.23-28.06-21.71-36.78-13.35-8.15,7.8,9.26,6.57,22.43,10.82C444.74,211.12,448.82,212.78,451.27,213.79Z" transform="translate(-15.04 -7)" fill="#302545"/><path d="M506.14,232.12a280.57,280.57,0,0,1-21.67-65c-7.51-37.2-5.83-76-5.83-76l33.49,4.14Z" transform="translate(-15.04 -7)" fill="#ac435e"/><path d="M243.79,232.12a280.84,280.84,0,0,0,21.68-65c7.5-37.2,5.83-76,5.83-76l-33.49,4.14Z" transform="translate(-15.04 -7)" fill="#ac435e"/><path d="M231.88,161.6s22.75,32.85,77.12,6.06c124.2-61.21,139.44-72.57,170.89-33.47l10.52-45.28-119-23.19L277,71.92l-50.7,17Z" transform="translate(-15.04 -7)" fill="#ac435e"/><ellipse cx="284.69" cy="279.43" rx="22.69" ry="8.81" fill="#f7816d"/><ellipse cx="439.37" cy="279.43" rx="22.69" ry="8.81" fill="#f7816d"/><path d="M301.61,481.29,375,541.38S331.23,584.13,320,586s-47.57-92.68-47.57-92.68Z" transform="translate(-15.04 -7)" fill="#f7f7f7"/><path d="M448.39,481.29,375,541.38s43.77,42.75,55,44.62,47.57-92.68,47.57-92.68Z" transform="translate(-15.04 -7)" fill="#f7f7f7"/><path d="M347.46,743l-45-268.75S271.05,481.89,260,495c-10.51,12.46-25.84,91-21.53,105.17C255.37,655.78,299.6,743,299.6,743Z" transform="translate(-15.04 -7)" fill="#54396b"/><path d="M402.53,743l45-268.75S478.93,481.89,490,495c10.5,12.46,25.83,91,21.53,105.17C494.61,655.78,450.38,743,450.38,743Z" transform="translate(-15.04 -7)" fill="#54396b"/><path d="M448.39,720.36h0l-39.74-.24a3.35,3.35,0,0,1,0-6.7h0l39.74.24a3.35,3.35,0,0,1,0,6.7Z" transform="translate(-15.04 -7)" fill="#ffac3e"/></svg>