<svg xmlns="http://www.w3.org/2000/svg" viewBox="0 0 738.84 740.65"><circle cx="369.42" cy="369.42" r="369.42" fill="#f9dfaf"/><path d="M733.18,743.6H16.82s13-100.72,51.17-149c61.39-77.63,305.27-161.88,305.27-161.88S628.92,515,682,594.56C716.2,645.82,733.18,743.6,733.18,743.6Z" transform="translate(-5.58 -4.68)" fill="#84a5a5"/><path d="M563.35,745.32a1.71,1.71,0,0,1-1.71-1.62l-3.88-69a1.72,1.72,0,1,1,3.43-.2l3.88,69a1.72,1.72,0,0,1-1.62,1.81Z" transform="translate(-5.58 -4.68)" fill="#302545"/><path d="M141.9,745.32h-.1a1.71,1.71,0,0,1-1.62-1.81l3.1-55.19a1.74,1.74,0,0,1,1.81-1.62,1.71,1.71,0,0,1,1.62,1.81l-3.1,55.19A1.71,1.71,0,0,1,141.9,745.32Z" transform="translate(-5.58 -4.68)" fill="#302545"/><polygon points="367.29 718.72 308.16 584.95 291.97 483.99 442.61 483.99 426.43 584.95 367.29 718.72" fill="#f7ad9a"/><path d="M230.83,254.08s-56.32-66.1-21.5-145.4c37.61-85.63,205.51-121.94,260-83.23,71.37,50.7,34.25,147.22,34.25,147.22Z" transform="translate(-5.58 -4.68)" fill="#3d2031"/><path d="M517.17,254.08s31.46-79.67,28.07-125.26c-6.9-92.61-117.4-42.5-201-53-51.86-6.52-39.14,91-39.14,91Z" transform="translate(-5.58 -4.68)" fill="#3d2031"/><path d="M505.49,234.13s28.86-19.43,49.39,5-5.55,81.59-49.39,80.48S470,273.21,470,273.21Z" transform="translate(-5.58 -4.68)" fill="#f7ad9a"/><path d="M240.25,234.13s-28.86-19.43-49.4,5,5.55,81.59,49.4,80.48,35.52-46.39,35.52-46.39Z" transform="translate(-5.58 -4.68)" fill="#f7ad9a"/><path d="M505.41,286.1a3,3,0,0,1-.82-.12,2.86,2.86,0,0,1-1.92-3.56,64.7,64.7,0,0,1,7.9-16.07c7.42-10.89,17.07-17.14,27.91-18.06A2.87,2.87,0,0,1,539,254c-22.09,1.87-30.73,29.78-30.81,30.06A2.87,2.87,0,0,1,505.41,286.1Z" transform="translate(-5.58 -4.68)" fill="#db6356"/><path d="M538.08,271.76a2.82,2.82,0,0,1-1.28-.3c-6.74-3.38-14.4-3.77-22.74-1.16a2.86,2.86,0,1,1-1.71-5.46c9.81-3.07,18.9-2.57,27,1.5a2.86,2.86,0,0,1-1.29,5.42Z" transform="translate(-5.58 -4.68)" fill="#db6356"/><path d="M242.64,286.1a2.86,2.86,0,0,1-2.74-2c-.11-.35-8.76-28.2-30.81-30.06a2.87,2.87,0,0,1,.48-5.71c10.85.92,20.5,7.17,27.91,18.06a65,65,0,0,1,7.91,16.07,2.86,2.86,0,0,1-1.93,3.56A2.59,2.59,0,0,1,242.64,286.1Z" transform="translate(-5.58 -4.68)" fill="#db6356"/><path d="M210,271.76a2.86,2.86,0,0,1-1.28-5.42c8.12-4.07,17.21-4.57,27-1.5A2.86,2.86,0,1,1,234,270.3c-8.35-2.61-16-2.22-22.75,1.16A2.79,2.79,0,0,1,210,271.76Z" transform="translate(-5.58 -4.68)" fill="#db6356"/><path d="M448.19,488.67q-37.67,33.69-75.32,33.69t-75.32-33.69l4.24-35.22,12.73-105.64.06-.51H432.22l8.25,73Z" transform="translate(-5.58 -4.68)" fill="#f7ad9a"/><path d="M440.47,420.32s-17.33,26.1-76,33.79a231.61,231.61,0,0,1-62.64-.66l12.73-105.64,85.94,18.49Z" transform="translate(-5.58 -4.68)" fill="#d87668"/><path d="M488.56,103.77H257.18s-38.55,163.33-8.77,247.05c41.48,116.6,207.44,116.6,248.91,0C527.1,267.1,488.56,103.77,488.56,103.77Z" transform="translate(-5.58 -4.68)" fill="#f9b5a0"/><path d="M375.21,327a18.53,18.53,0,0,1-13.58-5.41c-2.95-3.1-8.73-12,1.24-27.84,7.2-11.44,6.42-29.37,6.41-29.55a2.86,2.86,0,1,1,5.72-.28c0,.81.89,19.9-7.28,32.88-5.51,8.75-6.22,16.35-1.94,20.84,4.09,4.3,12,4.82,18.41,1.22a2.86,2.86,0,0,1,2.8,5A24.15,24.15,0,0,1,375.21,327Z" transform="translate(-5.58 -4.68)" fill="#db6356"/><path d="M375,356.13c-14.54,0-29.07-3.37-43.5-10.11a2.86,2.86,0,1,1,2.42-5.19c27.26,12.73,54.9,12.73,82.16,0A2.86,2.86,0,1,1,418.5,346C404.07,352.76,389.54,356.13,375,356.13Z" transform="translate(-5.58 -4.68)" fill="#db6356"/><path d="M372.87,377.57a82.64,82.64,0,0,1-18.77-2.18,2.86,2.86,0,1,1,1.3-5.58,76.05,76.05,0,0,0,34.93,0,2.87,2.87,0,0,1,1.31,5.58A82.64,82.64,0,0,1,372.87,377.57Z" transform="translate(-5.58 -4.68)" fill="#db6356"/><path d="M296.79,204.67c-1.26.52-2.17-.8-1.76-2.17,5-16.65,28.79-22.27,37.74-13.7,8.36,8-9.51,6.75-23,11.1C303.48,201.93,299.3,203.63,296.79,204.67Z" transform="translate(-5.58 -4.68)" fill="#302545"/><path d="M451.15,204.67c1.25.52,2.16-.8,1.75-2.17-5-16.65-28.79-22.27-37.74-13.7-8.36,8,9.51,6.75,23,11.1C444.45,201.93,448.63,203.63,451.15,204.67Z" transform="translate(-5.58 -4.68)" fill="#302545"/><path d="M237.13,270.16s12-77.58,32.57-94.89c29.8-25.07-3.26-87.06-3.26-87.06l-34.37,4.24Z" transform="translate(-5.58 -4.68)" fill="#3d2031"/><path d="M493.5,101.38l-2.18-3.67L369.21,75.81l-96.95,5.86s-24.2,36.88-37.41,40.29c-20.38,5.27-25.52,5-25.52,5s-9.3,79.37,80.4,67.34C359,185,377.54,108.81,458.6,136.49c34.22,11.69,49.95,123.33,49.95,123.33l5.05-156.16Z" transform="translate(-5.58 -4.68)" fill="#3d2031"/><ellipse cx="290.05" cy="284.02" rx="23.29" ry="9.04" fill="#f4a089"/><ellipse cx="448.79" cy="284.02" rx="23.29" ry="9.04" fill="#f4a089"/><path d="M313.74,591.64,301.45,455.1s-49,29.21-64.82,59.42c-7.19,13.69-17.26,39.4-26.13,63.42-5.8,15.69,11.22,30.15,25.71,21.78C261.39,585.17,291.94,574.88,313.74,591.64Z" transform="translate(-5.58 -4.68)" fill="#5b8c8b"/><path d="M432,591.64,444.3,455.1s49,29.21,64.81,59.42c7.19,13.69,17.27,39.4,26.14,63.42,5.79,15.69-11.22,30.15-25.71,21.78C484.36,585.17,453.81,574.88,432,591.64Z" transform="translate(-5.58 -4.68)" fill="#5b8c8b"/><path d="M491,271.1c-6,26.16-28.78,39.76-54.34,32.84a66.37,66.37,0,0,1-21.23-10.39q-1.26-.9-2.46-1.86c-13.79-10.91-22.39-26.52-27.7-40.45a28.09,28.09,0,0,1,22.47-37.82c14.53-1.95,26.75-2.26,37-1.27,10.64,1,19.14,3.46,25.85,6.9C492.64,230.33,495.29,252.42,491,271.1Z" transform="translate(-5.58 -4.68)" fill="#302545"/><path d="M364.71,251.24c-5.6,14.74-14.91,31.36-30.15,42.31-12,8.63-24.23,12.42-35.3,12.15a40.48,40.48,0,0,1-25-9c-7.33-5.95-12.76-14.68-15.27-25.6-5.7-24.86.91-55.79,49.16-59.19a159.56,159.56,0,0,1,28.28.8q2.85.31,5.82.71A28.08,28.08,0,0,1,364.71,251.24Z" transform="translate(-5.58 -4.68)" fill="#302545"/><path d="M400.5,256.73c-17.16-14.16-33.84-14.16-51,0l-4.37-5.31c19.82-16.35,39.92-16.35,59.74,0Z" transform="translate(-5.58 -4.68)" fill="#302545"/><rect x="342.99" y="218.69" width="52.87" height="6.87" fill="#302545"/><path d="M336.42,212.71l-37.16,93a40.48,40.48,0,0,1-25-9l33.89-84.79A159.56,159.56,0,0,1,336.42,212.71Z" transform="translate(-5.58 -4.68)" fill="#acccd2"/><path d="M470.6,219.05l-33.93,84.89a66.37,66.37,0,0,1-21.23-10.39q-1.26-.9-2.46-1.86l31.77-79.54C455.39,213.18,463.89,215.61,470.6,219.05Z" transform="translate(-5.58 -4.68)" fill="#acccd2"/></svg>