<svg xmlns="http://www.w3.org/2000/svg" viewBox="0 0 734 736.39"><circle cx="367" cy="367" r="367" fill="#f9dfaf"/><path d="M522.11,189.57A167.42,167.42,0,0,1,521,208.69h0c-8.91,77.13-70.93,136.88-146.13,136.88-73.32,0-134.11-56.77-145.36-131.08a164.92,164.92,0,0,1-1.88-24.93c0-41.66,15.41-79.49,40.52-107.47a149.72,149.72,0,0,1,16.2-15.57,144.49,144.49,0,0,1,19.7-13.75,140.06,140.06,0,0,1,66-19.13l2.38,0c.89,0,1.78,0,2.68,0s1.56,0,2.33,0A140,140,0,0,1,444.1,51.85a147.29,147.29,0,0,1,19.12,12.91,151.89,151.89,0,0,1,16.7,15.51C506,108.41,522.11,147,522.11,189.57Z" transform="translate(-8 -4.89)" fill="#fe9780"/><path d="M730.84,738.94H19.16s0-147,50.84-180.85C97.39,539.83,183.85,508,257.76,482.48c63.22-21.81,117.24-39,117.24-39s53.89,17.11,117,38.88c74,25.49,160.58,57.4,188,75.68C730.84,592,730.84,738.94,730.84,738.94Z" transform="translate(-8 -4.89)" fill="#a98b61"/><path d="M492,482.41c-13.27,19.18-48.35,57.93-115.25,58.15-59.39.19-101.2-38.06-119-58.08,63.22-21.81,117.24-39,117.24-39S428.89,460.64,492,482.41Z" transform="translate(-8 -4.89)" fill="#fcdfb9"/><path d="M506.75,219.23s28.67-19.3,49.07,5-5.51,81.05-49.07,79.95-35.29-46.09-35.29-46.09Z" transform="translate(-8 -4.89)" fill="#c16363"/><path d="M243.25,219.23s-28.67-19.3-49.07,5,5.51,81.05,49.07,79.95,35.29-46.09,35.29-46.09Z" transform="translate(-8 -4.89)" fill="#c16363"/><path d="M506.68,270.87a2.91,2.91,0,0,1-.82-.12,2.85,2.85,0,0,1-1.91-3.54,64,64,0,0,1,7.85-16c7.37-10.83,17-17,27.73-17.94A2.85,2.85,0,0,1,540,239c-21.94,1.85-30.53,29.58-30.61,29.86A2.85,2.85,0,0,1,506.68,270.87Z" transform="translate(-8 -4.89)" fill="#962d2d"/><path d="M539.13,256.62a2.75,2.75,0,0,1-1.27-.3c-6.7-3.35-14.3-3.74-22.6-1.15a2.84,2.84,0,1,1-1.69-5.43c9.74-3,18.77-2.54,26.84,1.49a2.85,2.85,0,0,1-1.28,5.39Z" transform="translate(-8 -4.89)" fill="#962d2d"/><path d="M245.63,270.87a2.85,2.85,0,0,1-2.73-2c-.1-.35-8.7-28-30.6-29.86a2.84,2.84,0,1,1,.47-5.67c10.78.91,20.37,7.11,27.73,17.94a63.54,63.54,0,0,1,7.85,16,2.85,2.85,0,0,1-2.72,3.66Z" transform="translate(-8 -4.89)" fill="#962d2d"/><path d="M213.17,256.62a2.85,2.85,0,0,1-1.27-5.39c8.06-4,17.09-4.53,26.84-1.49a2.84,2.84,0,0,1-1.7,5.43c-8.3-2.59-15.9-2.2-22.6,1.15A2.75,2.75,0,0,1,213.17,256.62Z" transform="translate(-8 -4.89)" fill="#962d2d"/><path d="M449.82,472.11Q375,539,300.18,472.11l4.21-35L317,332.18l.06-.52H434l8.2,72.54Z" transform="translate(-8 -4.89)" fill="#c16363"/><path d="M442.16,404.2s-17.22,25.93-75.55,33.58a230.15,230.15,0,0,1-62.22-.66L317,332.18l85.37,18.36Z" transform="translate(-8 -4.89)" fill="#972923"/><path d="M491.8,98.17,439,83.79l-64,5.94-72.78-8.25-51.15,23.64s-29.29,146.87.29,230c41.2,115.83,206.08,115.83,247.28,0C528.22,252,491.8,98.17,491.8,98.17Z" transform="translate(-8 -4.89)" fill="#c66b6a"/><ellipse cx="313.36" cy="231.25" rx="9.92" ry="10.51" fill="#271d3f"/><ellipse cx="426.75" cy="231.25" rx="9.92" ry="10.51" fill="#271d3f"/><path d="M377.34,300.86c-5.66,0-11-2-14.29-5.79-2.53-2.89-7.4-11.08,2.08-24.81,7.11-10.28,6.31-26.34,6.31-26.5a2.84,2.84,0,1,1,5.68-.31c0,.73.89,18.18-7.3,30-5.15,7.46-6,13.79-2.49,17.83,3.87,4.41,12.22,5.14,19,1.66a2.84,2.84,0,1,1,2.59,5.06A25.52,25.52,0,0,1,377.34,300.86Z" transform="translate(-8 -4.89)" fill="#962d2d"/><path d="M375,378.9a56.3,56.3,0,0,1-15.61-2.23,3.41,3.41,0,1,1,1.88-6.56,49.13,49.13,0,0,0,27.46,0,3.41,3.41,0,1,1,1.88,6.56A56.3,56.3,0,0,1,375,378.9Z" transform="translate(-8 -4.89)" fill="#7a231c"/><path d="M299.42,199.38c-1.25.51-2.16-.8-1.75-2.16,4.93-16.54,28.6-22.13,37.5-13.61,8.3,7.95-9.45,6.7-22.87,11C306.07,196.65,301.92,198.34,299.42,199.38Z" transform="translate(-8 -4.89)" fill="#7a231c"/><path d="M452.76,199.38c1.25.51,2.16-.8,1.75-2.16-4.93-16.54-28.6-22.13-37.5-13.61-8.3,7.95,9.45,6.7,22.87,11C446.11,196.65,450.26,198.34,452.76,199.38Z" transform="translate(-8 -4.89)" fill="#7a231c"/><ellipse cx="290.26" cy="268.55" rx="23.14" ry="8.98" fill="#c15959"/><ellipse cx="447.97" cy="268.55" rx="23.14" ry="8.98" fill="#c15959"/><path d="M583.2,741.28a1.7,1.7,0,0,1-1.7-1.61l-3.85-68.55a1.71,1.71,0,1,1,3.41-.19l3.85,68.55a1.7,1.7,0,0,1-1.61,1.79Z" transform="translate(-8 -4.89)" fill="#302545"/><path d="M171,741.28h-.09a1.7,1.7,0,0,1-1.61-1.79l3.85-68.55a1.71,1.71,0,1,1,3.41.19l-3.85,68.55A1.72,1.72,0,0,1,171,741.28Z" transform="translate(-8 -4.89)" fill="#302545"/><path d="M405.69,333.94a30.75,30.75,0,0,1-11,16c-4.68,3.51-11.24,6.2-20.36,6.2-8,0-13.81-2.3-18.07-5.4a29.75,29.75,0,0,1-10.95-16.82Z" transform="translate(-8 -4.89)" fill="#f7f7f7"/><path d="M479.92,80.27A70.5,70.5,0,0,1,462,93.47c-21.26,11.42-53.18,18.68-88.85,18.68s-67.57-7.26-88.83-18.68A73.76,73.76,0,0,1,268.17,82.1a149.72,149.72,0,0,1,16.2-15.57,144.49,144.49,0,0,1,19.7-13.75,140.06,140.06,0,0,1,66-19.13l2.38,0c.89,0,1.78,0,2.68,0s1.56,0,2.33,0A140,140,0,0,1,444.1,51.85a147.29,147.29,0,0,1,19.12,12.91A151.89,151.89,0,0,1,479.92,80.27Z" transform="translate(-8 -4.89)" fill="#7a231c"/><path d="M334.7,70.26s-14.33.42-32.48,11.22a110.9,110.9,0,0,0-30.14,26.88c-32.31,40.85-31.87,110.87-31.87,110.87l-10.68-4.73a164.92,164.92,0,0,1-1.88-24.93c0-50,22.2-94.5,56.72-123a144.49,144.49,0,0,1,19.7-13.75Z" transform="translate(-8 -4.89)" fill="#7a231c"/><path d="M522.11,189.57A167.42,167.42,0,0,1,521,208.69h0l-2,4.93-12.66,5.6s.44-70-31.87-110.87a110.9,110.9,0,0,0-30.14-26.88c-18.15-10.8-32.48-11.22-32.48-11.22L444.1,51.85a147.29,147.29,0,0,1,19.12,12.91C499,93.22,522.11,138.53,522.11,189.57Z" transform="translate(-8 -4.89)" fill="#7a231c"/><path d="M397.87,427.73h-44.7A44.81,44.81,0,0,1,308.42,383V346.4a37.28,37.28,0,0,1,37.24-37.24h59.72a37.28,37.28,0,0,1,37.24,37.24V383A44.8,44.8,0,0,1,397.87,427.73Zm-52.21-107.2A25.9,25.9,0,0,0,319.8,346.4V383a33.41,33.41,0,0,0,33.37,33.38h44.7A33.41,33.41,0,0,0,431.24,383V346.4a25.9,25.9,0,0,0-25.86-25.87Z" transform="translate(-8 -4.89)" fill="#7a231c"/></svg>