<svg width="102" height="32" viewBox="0 0 102 32" fill="none" xmlns="http://www.w3.org/2000/svg">
<path d="M20.335 4.645C18.4917 3.85167 16.485 3.455 14.315 3.455C12.1683 3.455 10.4183 4.14333 9.065 5.52C7.735 6.89667 7.07 8.69333 7.07 10.91H6.3C6.3 8.48333 7.04667 6.51167 8.54 4.995C10.0333 3.455 11.9467 2.685 14.28 2.685C16.1467 2.685 18.165 3.04667 20.335 3.77C22.8317 4.68 25.5383 5.135 28.455 5.135V5.87C26.705 5.87 25.305 5.78833 24.255 5.625C24.2317 5.71833 24.15 6.10333 24.01 6.78C23.1467 10.6067 22.4467 13.6517 21.91 15.915H31.29L34.86 0.724999H35.595L30.695 21.76C30.485 22.6233 30.38 23.2067 30.38 23.51C30.38 24.49 30.835 24.98 31.745 24.98C32.3983 24.98 32.97 24.6417 33.46 23.965L33.95 24.385C33.7867 24.6883 33.495 24.9683 33.075 25.225C32.655 25.505 32.1417 25.645 31.535 25.645C30.9517 25.645 30.485 25.4467 30.135 25.05C29.8083 24.6533 29.645 24.175 29.645 23.615L30.065 21.305L31.15 16.545H21.735C21.4783 17.525 21.2217 18.5867 20.965 19.73C20.7083 20.8733 20.3933 21.9933 20.02 23.09C19.67 24.1867 19.18 25.3183 18.55 26.485C17.92 27.6517 17.2083 28.5967 16.415 29.32C15.645 30.0667 14.665 30.6733 13.475 31.14C12.3083 31.63 11.0367 31.875 9.66 31.875C8.30667 31.875 7.02333 31.6183 5.81 31.105C4.59667 30.5917 3.58167 29.88 2.765 28.97C1.365 27.36 0.665 25.4117 0.665 23.125C0.665 22.7517 0.676667 22.3783 0.7 22.005L1.47 22.11C1.44667 22.4367 1.435 22.7633 1.435 23.09C1.435 25.26 2.08833 27.0683 3.395 28.515C4.725 29.985 6.51 30.72 8.75 30.72C10.99 30.72 12.565 30.125 13.475 28.935C14.385 27.745 15.2483 25.4583 16.065 22.075C16.905 18.6917 18.3283 12.8817 20.335 4.645ZM48.8048 24.315C46.7514 24.315 45.6314 23.4167 45.4448 21.62C44.4181 23.4167 43.1231 24.315 41.5598 24.315C39.9964 24.315 38.7481 23.8483 37.8148 22.915C36.9048 21.9583 36.4498 20.6283 36.4498 18.925C36.4498 16.265 37.1031 14.1767 38.4098 12.66C39.7164 11.1433 41.4081 10.385 43.4848 10.385C45.1881 10.385 46.3198 11.19 46.8798 12.8C46.9964 12.1 47.1248 11.4 47.2648 10.7C48.9914 10.7 50.2748 10.63 51.1148 10.49L51.5698 10.385L49.1548 23.615C49.8548 23.545 50.4381 23.2183 50.9048 22.635L51.4298 23.055C50.7298 23.895 49.8548 24.315 48.8048 24.315ZM40.4048 20.71C40.4048 21.76 40.5331 22.495 40.7898 22.915C41.0698 23.3117 41.4898 23.51 42.0498 23.51C42.6098 23.51 43.1814 23.2067 43.7648 22.6C44.5348 21.8067 45.1531 20.8033 45.6198 19.59C45.6898 19.2867 45.8181 18.5633 46.0048 17.42C46.2148 16.2533 46.3898 15.2967 46.5298 14.55C46.4598 13.6633 46.2148 12.8933 45.7948 12.24C45.3748 11.5867 44.8498 11.26 44.2198 11.26C43.0764 11.26 42.1548 12.2867 41.4548 14.34C40.7548 16.37 40.4048 18.4933 40.4048 20.71ZM59.7729 24.315C58.3029 24.315 57.2296 23.825 56.5529 22.845L53.6129 24.945H52.9479L56.8679 2.02C56.1679 2.09 55.5846 2.41667 55.1179 3L54.5929 2.58C55.2929 1.74 56.1679 1.32 57.2179 1.32C58.2912 1.32 59.1196 1.58833 59.7029 2.125C60.2862 2.66167 60.5779 3.42 60.5779 4.4C60.5779 4.58667 60.5546 4.89 60.5079 5.31C60.1346 7.38667 59.6796 9.88333 59.1429 12.8C60.1229 11.2133 61.3946 10.42 62.9579 10.42C64.5212 10.42 65.7229 10.875 66.5629 11.785C67.4029 12.6717 67.8229 13.8967 67.8229 15.46C67.8229 18.2133 67.0762 20.3833 65.5829 21.97C64.0896 23.5333 62.1529 24.315 59.7729 24.315ZM59.5279 23.37C60.8112 23.37 61.8496 22.4833 62.6429 20.71C63.4596 18.9133 63.8679 16.685 63.8679 14.025C63.8679 12.9517 63.7512 12.2167 63.5179 11.82C63.3079 11.4233 62.9112 11.225 62.3279 11.225C61.7446 11.225 61.1379 11.575 60.5079 12.275C59.9012 12.975 59.4579 13.64 59.1779 14.27C58.8979 14.8767 58.7579 15.2267 58.7579 15.32H58.6879C58.1046 18.3767 57.6729 20.6867 57.3929 22.25C57.7896 22.9967 58.5012 23.37 59.5279 23.37ZM76.0107 23.055C75.3107 23.895 74.4357 24.315 73.3857 24.315C72.3357 24.315 71.5074 24.0467 70.9007 23.51C70.3174 22.9733 70.0257 22.2733 70.0257 21.41C70.0257 21.1067 70.2124 19.835 70.5857 17.595L71.7407 11.33H70.2707L70.3407 10.7H71.8457C73.5724 10.7 74.844 10.63 75.6607 10.49L76.1507 10.385L73.7357 23.615C74.4357 23.545 75.019 23.2183 75.4857 22.635L76.0107 23.055ZM72.9307 7.025C72.4407 6.535 72.1957 5.94 72.1957 5.24C72.1957 4.54 72.4407 3.945 72.9307 3.455C73.4207 2.94167 74.0157 2.685 74.7157 2.685C75.4157 2.685 76.0107 2.94167 76.5007 3.455C77.014 3.945 77.2707 4.54 77.2707 5.24C77.2707 5.94 77.014 6.535 76.5007 7.025C76.0107 7.515 75.4157 7.76 74.7157 7.76C74.0157 7.76 73.4207 7.515 72.9307 7.025ZM84.3823 24.315C82.9123 24.315 81.8389 23.825 81.1623 22.845L78.2223 24.945H77.5573L81.4773 2.02C80.7773 2.09 80.1939 2.41667 79.7273 3L79.2023 2.58C79.9023 1.74 80.7773 1.32 81.8273 1.32C82.9006 1.32 83.7289 1.58833 84.3123 2.125C84.8956 2.66167 85.1873 3.42 85.1873 4.4C85.1873 4.58667 85.1639 4.89 85.1173 5.31C84.7439 7.38667 84.2889 9.88333 83.7523 12.8C84.7323 11.2133 86.0039 10.42 87.5673 10.42C89.1306 10.42 90.3323 10.875 91.1723 11.785C92.0123 12.6717 92.4323 13.8967 92.4323 15.46C92.4323 18.2133 91.6856 20.3833 90.1923 21.97C88.6989 23.5333 86.7623 24.315 84.3823 24.315ZM84.1373 23.37C85.4206 23.37 86.4589 22.4833 87.2523 20.71C88.0689 18.9133 88.4773 16.685 88.4773 14.025C88.4773 12.9517 88.3606 12.2167 88.1273 11.82C87.9173 11.4233 87.5206 11.225 86.9373 11.225C86.3539 11.225 85.7473 11.575 85.1173 12.275C84.5106 12.975 84.0673 13.64 83.7873 14.27C83.5073 14.8767 83.3673 15.2267 83.3673 15.32H83.2973C82.7139 18.3767 82.2823 20.6867 82.0023 22.25C82.3989 22.9967 83.1106 23.37 84.1373 23.37ZM100.62 23.055C99.9201 23.895 99.0451 24.315 97.9951 24.315C96.9451 24.315 96.1167 24.0467 95.5101 23.51C94.9267 22.9733 94.6351 22.2733 94.6351 21.41C94.6351 21.1067 94.8217 19.835 95.1951 17.595L96.3501 11.33H94.8801L94.9501 10.7H96.4551C98.1817 10.7 99.4534 10.63 100.27 10.49L100.76 10.385L98.3451 23.615C99.0451 23.545 99.6284 23.2183 100.095 22.635L100.62 23.055ZM97.5401 7.025C97.0501 6.535 96.8051 5.94 96.8051 5.24C96.8051 4.54 97.0501 3.945 97.5401 3.455C98.0301 2.94167 98.6251 2.685 99.3251 2.685C100.025 2.685 100.62 2.94167 101.11 3.455C101.623 3.945 101.88 4.54 101.88 5.24C101.88 5.94 101.623 6.535 101.11 7.025C100.62 7.515 100.025 7.76 99.3251 7.76C98.6251 7.76 98.0301 7.515 97.5401 7.025Z" fill="white"/>
</svg>
